<svg width="581" height="549" viewBox="0 0 581 549" fill="none" xmlns="http://www.w3.org/2000/svg">
<rect width="128.692" height="189.863" rx="11" transform="matrix(-1 0 0 1 514.057 43.2822)" fill="white"/>
<path d="M488.988 102.928V140.357C488.985 142.838 487.999 145.216 486.245 146.97C484.49 148.725 482.112 149.711 479.631 149.714H407.893C405.412 149.711 403.034 148.725 401.28 146.97C399.525 145.216 398.539 142.838 398.536 140.357V102.928C398.539 100.448 399.525 98.0692 401.28 96.315C403.034 94.5609 405.412 93.5741 407.893 93.5713H479.631C482.112 93.5741 484.49 94.5609 486.245 96.315C487.999 98.0692 488.985 100.448 488.988 102.928ZM404.774 102.928V140.357C404.774 141.184 405.103 141.978 405.688 142.562C406.273 143.147 407.066 143.476 407.893 143.476H479.631C480.458 143.476 481.252 143.147 481.837 142.562C482.422 141.978 482.75 141.184 482.75 140.357V102.928C482.75 102.101 482.422 101.308 481.837 100.723C481.252 100.138 480.458 99.8094 479.631 99.8094H407.893C407.066 99.8094 406.273 100.138 405.688 100.723C405.103 101.308 404.774 102.101 404.774 102.928Z" fill="#C4C4C4"/>
<path d="M404.774 159.071H482.75C483.577 159.071 484.371 159.4 484.956 159.985C485.541 160.57 485.869 161.363 485.869 162.19C485.869 163.018 485.541 163.811 484.956 164.396C484.371 164.981 483.577 165.309 482.75 165.309H404.774C403.947 165.309 403.153 164.981 402.568 164.396C401.984 163.811 401.655 163.018 401.655 162.19C401.655 161.363 401.984 160.57 402.568 159.985C403.153 159.4 403.947 159.071 404.774 159.071ZM404.774 174.667H482.75C483.577 174.667 484.371 174.995 484.956 175.58C485.541 176.165 485.869 176.958 485.869 177.786C485.869 178.613 485.541 179.406 484.956 179.991C484.371 180.576 483.577 180.905 482.75 180.905H404.774C403.947 180.905 403.153 180.576 402.568 179.991C401.984 179.406 401.655 178.613 401.655 177.786C401.655 176.958 401.984 176.165 402.568 175.58C403.153 174.995 403.947 174.667 404.774 174.667Z" fill="#C4C4C4"/>
<path d="M365.947 230.81H383.069C381.964 228.917 381.382 226.764 381.381 224.572V49.9052C381.385 46.5975 382.7 43.4263 385.039 41.0873C387.378 38.7484 390.549 37.4328 393.857 37.429H506.143C509.451 37.4328 512.622 38.7484 514.961 41.0873C517.3 43.4263 518.615 46.5975 518.619 49.9052V224.572C518.618 226.764 518.036 228.917 516.931 230.81H554.053C554.497 230.752 554.948 230.789 555.376 230.92C555.804 231.05 556.2 231.27 556.536 231.565C556.872 231.86 557.142 232.224 557.326 232.632C557.511 233.039 557.607 233.482 557.607 233.929C557.607 234.377 557.511 234.819 557.326 235.227C557.142 235.634 556.872 235.998 556.536 236.293C556.2 236.588 555.804 236.808 555.376 236.939C554.948 237.069 554.497 237.106 554.053 237.048H365.947C365.503 237.106 365.052 237.069 364.624 236.939C364.196 236.808 363.8 236.588 363.464 236.293C363.128 235.998 362.858 235.634 362.673 235.227C362.489 234.819 362.393 234.377 362.393 233.929C362.393 233.482 362.489 233.039 362.673 232.632C362.858 232.224 363.128 231.86 363.464 231.565C363.8 231.27 364.196 231.05 364.624 230.92C365.052 230.789 365.503 230.752 365.947 230.81ZM435.446 43.6671H407.374V76.4171L421.41 67.06L435.446 76.4171V43.6671ZM438.389 81.917C437.394 82.4498 436.272 82.7025 435.145 82.6479C434.017 82.5934 432.925 82.2338 431.986 81.6074L421.41 74.5572L410.835 81.6074C409.895 82.2337 408.803 82.5933 407.676 82.6478C406.548 82.7024 405.427 82.4498 404.431 81.917C403.436 81.3843 402.603 80.5913 402.023 79.6227C401.443 78.6541 401.136 77.5462 401.136 76.4171V43.6671H393.857C393.038 43.6671 392.227 43.8285 391.47 44.1419C390.713 44.4554 390.025 44.9149 389.446 45.4942C388.867 46.0735 388.407 46.7611 388.094 47.518C387.78 48.2748 387.619 49.086 387.619 49.9052V218.334H499.905V56.1433H441.684V76.4171C441.684 77.5462 441.378 78.6541 440.797 79.6227C440.217 80.5913 439.385 81.3842 438.389 81.917ZM506.143 230.81C507.797 230.81 509.384 230.153 510.554 228.983C511.724 227.813 512.381 226.226 512.381 224.572V49.9052C512.381 48.2508 511.724 46.6641 510.554 45.4942C509.384 44.3244 507.797 43.6671 506.143 43.6671H441.684V49.9052H503.024C503.851 49.9053 504.644 50.2339 505.229 50.8188C505.814 51.4038 506.143 52.1971 506.143 53.0243V221.453C506.143 222.28 505.814 223.073 505.229 223.658C504.644 224.243 503.851 224.572 503.024 224.572H387.619C387.619 225.391 387.78 226.202 388.094 226.959C388.407 227.716 388.867 228.404 389.446 228.983C390.025 229.562 390.713 230.022 391.47 230.335C392.227 230.649 393.038 230.81 393.857 230.81H506.143ZM492.107 24.9528C491.182 24.9528 490.277 24.6785 489.508 24.1644C488.738 23.6503 488.139 22.9196 487.785 22.0647C487.431 21.2098 487.338 20.2691 487.518 19.3615C487.699 18.454 488.145 17.6203 488.799 16.966C489.453 16.3117 490.287 15.8661 491.194 15.6856C492.102 15.5051 493.043 15.5977 493.898 15.9518C494.752 16.3059 495.483 16.9056 495.997 17.675C496.511 18.4444 496.786 19.3489 496.786 20.2743C496.784 21.5147 496.291 22.7039 495.414 23.581C494.537 24.4581 493.348 24.9514 492.107 24.9528ZM492.107 17.935C491.644 17.935 491.192 18.0722 490.807 18.3292C490.423 18.5863 490.123 18.9516 489.946 19.3791C489.769 19.8065 489.723 20.2769 489.813 20.7307C489.903 21.1844 490.126 21.6012 490.453 21.9284C490.78 22.2556 491.197 22.4784 491.651 22.5686C492.105 22.6589 492.575 22.6125 493.002 22.4355C493.43 22.2584 493.795 21.9586 494.052 21.5739C494.309 21.1892 494.446 20.7369 494.446 20.2743C494.446 19.654 494.199 19.0594 493.761 18.6208C493.322 18.1823 492.727 17.9356 492.107 17.935ZM352.92 70.179C353.537 70.179 354.14 70.362 354.652 70.7047C355.165 71.0474 355.565 71.5346 355.801 72.1045C356.037 72.6744 356.099 73.3016 355.979 73.9066C355.858 74.5116 355.561 75.0674 355.125 75.5036C354.689 75.9398 354.133 76.2369 353.528 76.3572C352.923 76.4776 352.296 76.4158 351.726 76.1797C351.156 75.9436 350.669 75.5439 350.326 75.0309C349.984 74.518 349.801 73.915 349.801 73.2981C349.802 72.4712 350.13 71.6784 350.715 71.0936C351.3 70.5089 352.093 70.18 352.92 70.179ZM352.92 74.8576C353.228 74.8576 353.53 74.7661 353.786 74.5948C354.043 74.4234 354.242 74.1799 354.36 73.8949C354.478 73.6099 354.509 73.2964 354.449 72.9938C354.389 72.6913 354.24 72.4134 354.022 72.1953C353.804 71.9772 353.526 71.8287 353.224 71.7685C352.921 71.7084 352.608 71.7392 352.323 71.8573C352.038 71.9753 351.794 72.1752 351.623 72.4317C351.452 72.6881 351.36 72.9896 351.36 73.2981C351.361 73.7116 351.525 74.108 351.817 74.4004C352.11 74.6928 352.506 74.8572 352.92 74.8576ZM407.374 19.4945C407.991 19.4945 408.594 19.6774 409.107 20.0202C409.62 20.3629 410.02 20.85 410.256 21.42C410.492 21.9899 410.554 22.617 410.434 23.2221C410.313 23.8271 410.016 24.3829 409.58 24.8191C409.144 25.2553 408.588 25.5523 407.983 25.6727C407.378 25.793 406.751 25.7313 406.181 25.4952C405.611 25.2591 405.124 24.8593 404.781 24.3464C404.438 23.8335 404.255 23.2305 404.255 22.6136C404.256 21.7866 404.585 20.9938 405.17 20.4091C405.755 19.8244 406.548 19.4955 407.374 19.4945ZM407.374 24.1731C407.683 24.1731 407.984 24.0816 408.241 23.9103C408.497 23.7389 408.697 23.4953 408.815 23.2104C408.933 22.9254 408.964 22.6118 408.904 22.3093C408.844 22.0068 408.695 21.7289 408.477 21.5108C408.259 21.2927 407.981 21.1442 407.679 21.084C407.376 21.0238 407.063 21.0547 406.778 21.1727C406.493 21.2908 406.249 21.4907 406.078 21.7471C405.906 22.0036 405.815 22.3051 405.815 22.6136C405.815 23.027 405.98 23.4235 406.272 23.7159C406.565 24.0082 406.961 24.1727 407.374 24.1731ZM557.607 93.5719C557.607 92.955 557.79 92.352 558.133 91.839C558.475 91.3261 558.963 90.9263 559.533 90.6903C560.102 90.4542 560.73 90.3924 561.335 90.5128C561.94 90.6331 562.495 90.9302 562.932 91.3664C563.368 91.8026 563.665 92.3584 563.785 92.9634C563.906 93.5684 563.844 94.1956 563.608 94.7655C563.372 95.3354 562.972 95.8226 562.459 96.1653C561.946 96.508 561.343 96.6909 560.726 96.6909C559.899 96.69 559.106 96.3611 558.522 95.7763C557.937 95.1916 557.608 94.3988 557.607 93.5719ZM562.286 93.5719C562.286 93.2635 562.194 92.9619 562.023 92.7055C561.851 92.449 561.608 92.2491 561.323 92.1311C561.038 92.013 560.724 91.9822 560.422 92.0423C560.119 92.1025 559.842 92.251 559.623 92.4691C559.405 92.6872 559.257 92.9651 559.197 93.2676C559.136 93.5702 559.167 93.8837 559.285 94.1687C559.403 94.4537 559.603 94.6972 559.86 94.8686C560.116 95.0399 560.418 95.1314 560.726 95.1314C561.14 95.131 561.536 94.9666 561.828 94.6742C562.121 94.3818 562.285 93.9854 562.286 93.5719Z" fill="#C4C4C4"/>
<rect x="123.665" y="144.956" width="237.736" height="350.74" rx="11" fill="white"/>
<path d="M169.976 255.143V324.286C169.981 328.869 171.804 333.262 175.045 336.503C178.285 339.744 182.679 341.566 187.262 341.572H319.786C324.368 341.566 328.762 339.744 332.003 336.503C335.243 333.262 337.066 328.869 337.071 324.286V255.143C337.066 250.56 335.243 246.167 332.003 242.926C328.762 239.685 324.368 237.863 319.786 237.857H187.262C182.679 237.863 178.285 239.685 175.045 242.926C171.804 246.167 169.981 250.56 169.976 255.143ZM325.547 255.143V324.286C325.547 325.814 324.94 327.28 323.86 328.36C322.779 329.441 321.314 330.048 319.786 330.048H187.262C185.734 330.048 184.268 329.441 183.188 328.36C182.107 327.28 181.5 325.814 181.5 324.286V255.143C181.5 253.615 182.107 252.149 183.188 251.069C184.268 249.988 185.734 249.381 187.262 249.381H319.786C321.314 249.381 322.779 249.988 323.86 251.069C324.94 252.149 325.547 253.615 325.547 255.143Z" fill="#0669FD"/>
<path d="M325.547 358.857H181.5C179.972 358.857 178.506 359.464 177.426 360.545C176.345 361.626 175.738 363.091 175.738 364.619C175.738 366.147 176.345 367.613 177.426 368.694C178.506 369.774 179.972 370.381 181.5 370.381H325.547C327.076 370.381 328.541 369.774 329.622 368.694C330.702 367.613 331.309 366.147 331.309 364.619C331.309 363.091 330.702 361.626 329.622 360.545C328.541 359.464 327.076 358.857 325.547 358.857ZM325.547 387.667H181.5C179.972 387.667 178.506 388.274 177.426 389.355C176.345 390.435 175.738 391.901 175.738 393.429C175.738 394.957 176.345 396.423 177.426 397.503C178.506 398.584 179.972 399.191 181.5 399.191H325.547C327.076 399.191 328.541 398.584 329.622 397.503C330.702 396.423 331.309 394.957 331.309 393.429C331.309 391.901 330.702 390.435 329.622 389.355C328.541 388.274 327.076 387.667 325.547 387.667Z" fill="#0669FD"/>
<path d="M434.221 491.381H365.643C367.685 487.883 368.761 483.907 368.762 479.857V157.191C368.755 151.08 366.325 145.222 362.004 140.901C357.683 136.58 351.825 134.15 345.714 134.143H138.286C132.175 134.15 126.317 136.58 121.996 140.901C117.675 145.222 115.245 151.08 115.238 157.191V479.857C115.239 483.907 116.315 487.883 118.357 491.381H49.779C48.9593 491.274 48.1262 491.343 47.3353 491.583C46.5444 491.824 45.8139 492.231 45.1927 492.776C44.5714 493.321 44.0737 493.993 43.7327 494.746C43.3917 495.499 43.2153 496.316 43.2153 497.143C43.2153 497.97 43.3917 498.787 43.7327 499.54C44.0737 500.293 44.5714 500.965 45.1927 501.51C45.8139 502.055 46.5444 502.462 47.3353 502.702C48.1262 502.943 48.9593 503.012 49.779 502.905H434.221C435.041 503.012 435.874 502.943 436.665 502.702C437.455 502.462 438.186 502.055 438.807 501.51C439.428 500.965 439.926 500.293 440.267 499.54C440.608 498.787 440.785 497.97 440.785 497.143C440.785 496.316 440.608 495.499 440.267 494.746C439.926 493.993 439.428 493.321 438.807 492.776C438.186 492.231 437.455 491.824 436.665 491.583C435.874 491.343 435.041 491.274 434.221 491.381ZM268.886 145.667H320.743V206.167L294.815 188.881L268.886 206.167V145.667ZM263.448 216.327C265.287 217.311 267.359 217.778 269.443 217.677C271.526 217.576 273.543 216.912 275.278 215.755L294.815 202.731L314.351 215.755C316.086 216.912 318.103 217.576 320.187 217.677C322.27 217.778 324.342 217.311 326.181 216.327C328.02 215.343 329.557 213.878 330.629 212.088C331.701 210.299 332.267 208.253 332.267 206.167V145.667H345.714C347.228 145.667 348.726 145.965 350.124 146.544C351.522 147.123 352.793 147.972 353.863 149.042C354.933 150.112 355.782 151.382 356.361 152.781C356.94 154.179 357.238 155.677 357.238 157.191V468.333H149.809V168.714H257.362V206.167C257.362 208.252 257.928 210.299 259 212.088C260.072 213.878 261.61 215.343 263.448 216.327ZM138.286 491.381C135.229 491.381 132.298 490.167 130.137 488.006C127.976 485.845 126.762 482.914 126.762 479.857V157.191C126.762 154.134 127.976 151.203 130.137 149.042C132.298 146.881 135.229 145.667 138.286 145.667H257.362V157.191H144.048C142.519 157.191 141.054 157.798 139.973 158.878C138.893 159.959 138.286 161.424 138.286 162.952V474.095C138.286 475.623 138.893 477.089 139.973 478.169C141.054 479.25 142.519 479.857 144.048 479.857H357.238C357.238 481.371 356.94 482.869 356.361 484.267C355.782 485.665 354.933 486.936 353.863 488.006C352.793 489.076 351.522 489.925 350.124 490.504C348.726 491.083 347.228 491.381 345.714 491.381H138.286ZM164.214 111.095C165.924 111.095 167.595 110.588 169.016 109.639C170.437 108.689 171.545 107.339 172.199 105.76C172.853 104.181 173.025 102.443 172.691 100.766C172.358 99.0897 171.534 97.5497 170.326 96.341C169.117 95.1323 167.577 94.3091 165.9 93.9756C164.224 93.6422 162.486 93.8133 160.907 94.4675C159.327 95.1216 157.978 96.2294 157.028 97.6507C156.078 99.072 155.571 100.743 155.571 102.452C155.574 104.744 156.485 106.941 158.106 108.561C159.726 110.181 161.923 111.093 164.214 111.095ZM164.214 98.131C165.069 98.131 165.904 98.3844 166.615 98.8593C167.326 99.3341 167.88 100.009 168.207 100.799C168.534 101.588 168.619 102.457 168.453 103.296C168.286 104.134 167.874 104.904 167.27 105.508C166.666 106.113 165.896 106.524 165.057 106.691C164.219 106.858 163.35 106.772 162.56 106.445C161.771 106.118 161.096 105.564 160.621 104.853C160.146 104.143 159.893 103.307 159.893 102.452C159.894 101.307 160.35 100.208 161.16 99.398C161.97 98.5878 163.068 98.1321 164.214 98.131ZM421.339 194.643C420.2 194.643 419.086 194.981 418.138 195.614C417.191 196.247 416.452 197.147 416.016 198.2C415.58 199.253 415.466 200.411 415.688 201.529C415.91 202.647 416.459 203.673 417.265 204.479C418.071 205.285 419.097 205.834 420.215 206.056C421.333 206.278 422.491 206.164 423.544 205.728C424.597 205.292 425.497 204.553 426.13 203.606C426.763 202.658 427.101 201.544 427.101 200.405C427.099 198.877 426.492 197.413 425.412 196.332C424.331 195.252 422.867 194.645 421.339 194.643ZM421.339 203.286C420.769 203.286 420.212 203.117 419.739 202.8C419.265 202.484 418.896 202.034 418.678 201.507C418.46 200.981 418.402 200.402 418.514 199.843C418.625 199.284 418.899 198.771 419.302 198.368C419.705 197.965 420.218 197.69 420.777 197.579C421.336 197.468 421.915 197.525 422.442 197.743C422.968 197.961 423.418 198.33 423.735 198.804C424.051 199.278 424.22 199.835 424.22 200.405C424.219 201.169 423.916 201.901 423.376 202.441C422.835 202.981 422.103 203.285 421.339 203.286ZM320.743 101.012C319.604 101.012 318.49 101.35 317.542 101.983C316.595 102.616 315.856 103.516 315.42 104.569C314.984 105.622 314.87 106.78 315.092 107.898C315.314 109.016 315.863 110.042 316.669 110.848C317.475 111.654 318.501 112.203 319.619 112.425C320.737 112.647 321.895 112.533 322.948 112.097C324.001 111.661 324.901 110.923 325.534 109.975C326.167 109.027 326.505 107.913 326.505 106.774C326.503 105.246 325.896 103.782 324.816 102.702C323.735 101.621 322.271 101.014 320.743 101.012ZM320.743 109.655C320.173 109.655 319.617 109.486 319.143 109.169C318.669 108.853 318.3 108.403 318.082 107.876C317.864 107.35 317.807 106.771 317.918 106.212C318.029 105.653 318.303 105.14 318.706 104.737C319.109 104.334 319.622 104.059 320.181 103.948C320.74 103.837 321.319 103.894 321.846 104.112C322.372 104.33 322.822 104.7 323.139 105.173C323.455 105.647 323.624 106.204 323.624 106.774C323.623 107.538 323.32 108.27 322.78 108.81C322.239 109.35 321.507 109.654 320.743 109.655ZM43.2142 237.857C43.2142 236.718 42.8763 235.604 42.2432 234.656C41.6101 233.708 40.7102 232.97 39.6573 232.534C38.6045 232.098 37.4459 231.984 36.3282 232.206C35.2105 232.428 34.1839 232.977 33.3781 233.783C32.5722 234.589 32.0235 235.615 31.8011 236.733C31.5788 237.851 31.6929 239.009 32.129 240.062C32.5651 241.115 33.3037 242.015 34.2512 242.648C35.1987 243.281 36.3127 243.619 37.4523 243.619C38.98 243.617 40.4445 243.01 41.5247 241.93C42.6049 240.849 43.2125 239.385 43.2142 237.857ZM34.5714 237.857C34.5714 237.287 34.7404 236.73 35.0569 236.257C35.3735 235.783 35.8234 235.414 36.3498 235.196C36.8763 234.977 37.4555 234.92 38.0144 235.032C38.5732 235.143 39.0866 235.417 39.4895 235.82C39.8924 236.223 40.1668 236.736 40.2779 237.295C40.3891 237.854 40.332 238.433 40.114 238.96C39.8959 239.486 39.5267 239.936 39.0529 240.253C38.5791 240.569 38.0221 240.738 37.4523 240.738C36.6885 240.737 35.9562 240.434 35.416 239.893C34.8759 239.353 34.5721 238.621 34.5714 237.857Z" fill="#0669FD"/>
</svg>
