<svg width="528" height="392" viewBox="0 0 528 392" fill="none" xmlns="http://www.w3.org/2000/svg">
<g filter="url(#filter0_i_290_103)">
<path d="M404.574 102.444C403.244 103.778 401.658 104.409 399.814 104.338C397.97 104.267 396.381 103.561 395.045 102.222C393.716 100.889 393.051 99.2978 393.051 97.4489C393.051 95.6 393.716 94.0059 395.045 92.6667L408.784 79.1111C407.159 76.5926 405.939 73.9259 405.123 71.1111C404.308 68.2963 403.903 65.3333 403.909 62.2222C403.909 53.4815 406.976 46.1096 413.11 40.1067C419.243 34.1037 426.517 31.1052 434.932 31.1111C443.352 31.1111 450.629 34.1096 456.763 40.1067C462.897 46.1037 465.96 53.4756 465.955 62.2222C465.955 70.963 462.888 78.3348 456.754 84.3378C450.62 90.3407 443.346 93.3392 434.932 93.3333C431.83 93.3333 428.91 92.9985 426.175 92.3289C423.439 91.6592 420.744 90.5126 418.091 88.8889L404.574 102.444ZM434.932 80C439.807 80 443.982 78.2578 447.456 74.7733C450.931 71.2889 452.665 67.1052 452.659 62.2222C452.659 57.3333 450.922 53.1467 447.447 49.6622C443.973 46.1778 439.801 44.4385 434.932 44.4445C430.205 44.4445 426.068 46.1867 422.523 49.6711C418.977 53.1556 417.205 57.3393 417.205 62.2222C417.205 67.1111 418.942 71.2978 422.416 74.7822C425.891 78.2667 430.063 80.0059 434.932 80ZM501.409 133.333C506.284 133.333 510.459 131.591 513.933 128.107C517.408 124.622 519.142 120.438 519.136 115.556V17.7778C519.136 12.8889 517.399 8.70223 513.925 5.21779C510.45 1.73335 506.278 -0.00591083 501.409 1.50915e-05H359.591C354.716 1.50915e-05 350.541 1.74224 347.067 5.22668C343.592 8.71112 341.858 12.8948 341.864 17.7778V115.556C341.864 120.444 343.601 124.631 347.075 128.116C350.55 131.6 354.722 133.339 359.591 133.333H501.409ZM519.136 160C521.648 160 523.754 159.147 525.456 157.44C527.158 155.733 528.006 153.624 528 151.111C528 148.593 527.149 146.48 525.447 144.773C523.745 143.067 521.642 142.216 519.136 142.222H341.864C339.352 142.222 337.246 143.076 335.544 144.782C333.842 146.489 332.994 148.598 333 151.111C333 153.63 333.851 155.742 335.553 157.449C337.255 159.156 339.358 160.006 341.864 160H519.136Z" fill="#D9D9D9"/>
</g>
<g filter="url(#filter1_i_290_103)">
<path d="M248.751 276.169C251.431 278.853 254.628 280.123 258.344 279.98C262.06 279.837 265.263 278.417 267.955 275.722C270.634 273.039 271.974 269.837 271.974 266.116C271.974 262.395 270.634 259.187 267.955 256.492L240.266 229.211C243.541 224.143 246 218.776 247.644 213.111C249.287 207.446 250.103 201.483 250.091 195.222C250.091 177.631 243.91 162.796 231.548 150.715C219.187 138.634 204.527 132.599 187.568 132.611C170.598 132.611 155.932 138.646 143.57 150.715C131.208 162.784 125.034 177.62 125.045 195.222C125.045 212.813 131.226 227.649 143.588 239.73C155.95 251.811 170.61 257.845 187.568 257.833C193.82 257.833 199.704 257.16 205.217 255.812C210.731 254.464 216.162 252.157 221.509 248.889L248.751 276.169ZM187.568 231C177.743 231 169.329 227.494 162.327 220.481C155.324 213.469 151.829 205.049 151.841 195.222C151.841 185.383 155.342 176.958 162.345 169.945C169.347 162.933 177.755 159.433 187.568 159.444C197.095 159.444 205.432 162.951 212.577 169.963C219.723 176.976 223.295 185.395 223.295 195.222C223.295 205.061 219.794 213.487 212.792 220.499C205.789 227.512 197.381 231.012 187.568 231ZM53.591 338.333C43.766 338.333 35.3522 334.827 28.3496 327.815C21.3471 320.802 17.8518 312.382 17.8637 302.556V105.778C17.8637 95.9389 21.365 87.5132 28.3675 80.5008C35.3701 73.4884 43.7779 69.9881 53.591 70H339.409C349.234 70 357.648 73.5063 364.65 80.5187C371.653 87.5311 375.148 95.9508 375.136 105.778V302.556C375.136 312.394 371.635 320.82 364.633 327.833C357.63 334.845 349.222 338.345 339.409 338.333H53.591ZM17.8637 392C12.8023 392 8.55674 390.283 5.12692 386.848C1.69711 383.413 -0.0118473 379.168 6.18119e-05 374.111C6.18119e-05 369.043 1.71497 364.791 5.14479 361.356C8.5746 357.922 12.8142 356.21 17.8637 356.222H375.136C380.198 356.222 384.443 357.94 387.873 361.374C391.303 364.809 393.012 369.054 393 374.111C393 379.18 391.285 383.431 387.855 386.866C384.425 390.3 380.186 392.012 375.136 392H17.8637Z" fill="#257CFD"/>
</g>
<defs>
<filter id="filter0_i_290_103" x="333" y="0" width="195" height="164" filterUnits="userSpaceOnUse" color-interpolation-filters="sRGB">
<feFlood flood-opacity="0" result="BackgroundImageFix"/>
<feBlend mode="normal" in="SourceGraphic" in2="BackgroundImageFix" result="shape"/>
<feColorMatrix in="SourceAlpha" type="matrix" values="0 0 0 0 0 0 0 0 0 0 0 0 0 0 0 0 0 0 127 0" result="hardAlpha"/>
<feOffset dy="4"/>
<feGaussianBlur stdDeviation="2"/>
<feComposite in2="hardAlpha" operator="arithmetic" k2="-1" k3="1"/>
<feColorMatrix type="matrix" values="0 0 0 0 0 0 0 0 0 0 0 0 0 0 0 0 0 0 0.25 0"/>
<feBlend mode="normal" in2="shape" result="effect1_innerShadow_290_103"/>
</filter>
<filter id="filter1_i_290_103" x="0" y="70" width="393" height="326" filterUnits="userSpaceOnUse" color-interpolation-filters="sRGB">
<feFlood flood-opacity="0" result="BackgroundImageFix"/>
<feBlend mode="normal" in="SourceGraphic" in2="BackgroundImageFix" result="shape"/>
<feColorMatrix in="SourceAlpha" type="matrix" values="0 0 0 0 0 0 0 0 0 0 0 0 0 0 0 0 0 0 127 0" result="hardAlpha"/>
<feOffset dy="4"/>
<feGaussianBlur stdDeviation="2"/>
<feComposite in2="hardAlpha" operator="arithmetic" k2="-1" k3="1"/>
<feColorMatrix type="matrix" values="0 0 0 0 0 0 0 0 0 0 0 0 0 0 0 0 0 0 0.25 0"/>
<feBlend mode="normal" in2="shape" result="effect1_innerShadow_290_103"/>
</filter>
</defs>
</svg>
