<svg width="533" height="323" viewBox="0 0 533 323" fill="none" xmlns="http://www.w3.org/2000/svg">
<path fill-rule="evenodd" clip-rule="evenodd" d="M523.508 60.5385L515.56 59.349L517.52 52.0305L532.296 49L523.508 60.5385ZM347.363 165.317L337.627 169.287L337.618 169.271L337.613 169.234L337.596 169.112L337.548 168.68C337.513 168.317 337.452 167.787 337.404 167.112C337.249 165.257 337.151 163.38 337.11 161.483C336.958 155.519 337.378 149.356 338.366 143.035C339.538 135.883 341.729 127.694 345.911 119.769C350.084 111.874 356.728 103.306 367.397 96.5858C376.976 90.5552 391.677 85.0019 406.532 80.1986C421.933 75.2059 439.429 70.4178 455.775 66.2736C476.01 61.1618 496.158 56.5029 516.19 52.3032L517.188 52.0911L517.537 52.0153L515.582 59.3414L523.53 60.5309L523.316 60.8112L522.703 61.6143C519.146 66.2621 515.551 70.9039 511.917 75.5393C503.005 86.9384 493.9 98.3041 484.605 109.632C474.138 122.367 462.809 135.717 452.517 146.891C447.861 152.003 442.95 157.035 437.802 161.968C433.402 166.135 428.704 170.181 424.19 173.029C414.541 179.105 403.881 181.007 395.247 181.492C386.24 181.999 377.112 181.083 369.194 179.749C362.145 178.541 355.363 176.998 348.872 175.128C346.211 174.372 343.598 173.564 341.034 172.703L340.579 172.537L340.457 172.491L340.417 172.484H340.4L347.376 165.309L347.363 165.317ZM347.363 165.317L337.627 169.287L337.937 171.597L340.4 172.484L347.363 165.317ZM356.886 159.006C364.444 161.427 372.437 163.375 380.821 164.839C388.191 166.074 395.872 166.771 402.801 166.377C410.114 165.968 414.532 164.468 416.771 163.059C418.206 162.15 420.936 159.998 424.986 156.165C429.618 151.719 434.038 147.186 438.226 142.581C447.998 131.974 458.955 119.072 469.291 106.503C479.267 94.3427 489.02 82.1382 498.545 69.895L495.448 70.5769C484.316 73.0543 469.195 76.5469 453.177 80.6077C437.128 84.6761 420.363 89.2748 405.889 93.9645C390.868 98.8284 380.077 103.245 374.798 106.571C370.581 109.223 366.841 113.306 363.775 119.117C360.717 124.898 358.841 131.466 357.796 137.914C356.65 145.206 356.345 152.262 356.886 159.006ZM235.382 79.6077L228.891 86.9262L219.561 88.1157L224.101 76.5848L235.386 79.6152L235.382 79.6077ZM266.136 173.044L271.293 177.007L271.32 176.992L271.355 176.961L271.482 176.863L271.945 176.499C274.388 174.553 276.789 172.578 279.145 170.575C283.676 166.726 289.726 161.354 295.622 155.415C301.448 149.536 307.498 142.725 311.653 136.088C315.804 129.474 318.647 122.095 316.119 116.261C313.888 111.094 306.899 106.488 299.358 102.579C291.471 98.495 281.699 94.5857 272.282 91.2143C260.611 87.0513 248.585 83.2564 236.222 79.8349L235.601 79.6683L235.382 79.6077L228.891 86.9262L219.561 88.1157L219.473 88.343L219.215 89.0021L218.262 91.4719C213.547 103.727 209.155 115.937 205.087 128.095C201.64 138.459 198.312 149.346 196.173 158.475C195.114 163.036 194.305 167.286 193.959 170.87C193.627 174.279 193.623 177.757 194.707 180.242C197.026 185.621 204.444 187.212 211.119 187.606C218.153 188.03 226.581 187.265 234.337 186.181C244.092 184.789 254.037 182.855 264.098 180.393L264.619 180.264L264.772 180.227L264.824 180.211L266.136 173.044ZM266.136 173.044L271.293 177.007L268.31 179.325L264.824 180.211L266.136 173.044ZM263.897 166.726C270.352 161.465 276.441 155.972 282.102 150.301C287.233 145.126 291.734 139.937 294.55 135.436C297.394 130.906 297.962 128.012 297.197 126.231C296.13 123.792 291.755 120.307 284.096 116.344C276.796 112.564 267.536 108.844 258.329 105.548C250.302 102.687 242.103 100.004 233.737 97.5025L233.663 97.6919C230.951 104.965 227.399 114.784 224.018 124.959C220.624 135.156 217.444 145.588 215.436 154.157C214.439 158.445 213.752 162.15 213.472 165.059C213.179 168.143 213.394 169.711 213.63 170.271C213.94 170.976 215.572 172.166 221.018 172.491C226.1 172.794 232.836 172.249 239.918 171.256C247.792 170.129 255.797 168.621 263.897 166.726ZM203.036 238.957C200.752 239.063 199.51 239.336 199.169 239.442C194.309 240.995 180.172 244.631 168.008 247.7C161.757 249.283 155.782 250.768 151.369 251.867L151.08 251.942L127.447 292.876C129.022 292.816 130.706 292.763 132.425 292.71C139.799 292.482 148.548 292.255 152.204 292.391C167.571 292.929 177.491 296.142 186.672 299.119L186.869 299.187C195.477 301.975 203.464 304.536 215.393 305.347C218.761 305.574 221.993 305.869 225.011 306.142H225.055C236.637 307.203 244.362 307.733 251.711 305.779C257.428 304.256 279.25 297.142 301.606 289.361C312.664 285.512 323.586 281.595 332.408 278.239C336.835 276.557 340.632 275.057 343.606 273.8C345.089 273.171 346.287 272.64 347.219 272.209C347.585 272.038 347.95 271.861 348.313 271.678L348.662 271.496C349.979 270.731 352.446 268.064 352.389 265.557C352.358 264.384 351.716 263.47 350.578 262.981C349.209 262.322 346.528 261.814 341.415 262.488C329.884 264.004 314.593 268.443 299.296 272.921L299.082 272.989C291.567 275.186 284.031 277.391 277.548 278.997C271.324 280.535 264.605 281.914 259.597 281.648C252.73 281.27 241.217 279.679 231.795 278.239C226.38 277.414 220.994 276.55 215.637 275.648L214.601 275.474L214.238 275.406L224.578 260.375L264.317 260.791H264.404C264.897 260.748 265.403 260.672 265.918 260.564C267.475 260.261 270.279 259.511 274.316 257.685C275.563 257.117 277.373 256.071 279.311 254.67C280.065 254.121 280.792 253.549 281.489 252.958C276.77 252.689 272.269 252.096 268.026 251.185C265.712 250.695 263.463 250.127 261.286 249.48L261.032 249.404L217.518 239.965L217.094 239.896C214.704 239.522 212.24 239.244 209.711 239.063C207.563 238.902 205.333 238.867 203.036 238.957ZM223.52 232.54L229.403 225.093L229.547 225.115L274.005 234.752L274.316 234.851L274.373 234.873L274.657 234.957L275.842 235.298C276.892 235.585 278.414 235.979 280.269 236.373C284.061 237.169 288.956 237.904 293.873 237.904C298.798 237.904 303.233 239.495 303.504 244.025C303.732 247.904 300.696 252.102 298.229 254.874C296.01 257.326 293.459 259.667 290.653 261.829C293.838 260.92 297.232 259.935 300.801 258.89L301.457 258.693C315.962 254.45 333.353 249.359 347.206 247.533C363.294 245.427 371.78 250.048 371.946 258.594C372.09 266.133 365.354 276.072 354.996 282.118C352.398 283.633 348.947 285.171 345.706 286.543C341.599 288.253 337.481 289.887 333.357 291.444C324.111 294.96 312.847 298.998 301.637 302.9C279.499 310.605 256.513 318.143 249.445 320.022C237.189 323.279 225.785 322.242 215.655 321.317L214.601 321.219C211.539 320.932 208.454 320.68 205.345 320.461C191.374 319.507 182.001 316.469 173.436 313.696L173.252 313.635C164.041 310.65 155.725 307.991 142.765 307.529C139.917 307.43 131.992 307.612 124.311 307.854C119.987 307.988 115.655 308.137 111.315 308.301L110.161 308.347L100.8 308.711L139.887 241.01L148.832 238.805C156.092 237.014 163.356 235.2 170.624 233.366C183.365 230.146 196.265 226.805 199.93 225.638C203.867 224.38 207.751 223.971 210.76 223.82C213.953 223.668 217.081 223.782 219.767 223.964C222.994 224.191 226.131 224.553 229.167 225.047L229.333 225.077H229.385L229.398 225.085H229.416L223.52 232.54Z" fill="#D9D9D9"/>
<path fill-rule="evenodd" clip-rule="evenodd" d="M438.812 104.351C439.312 104.998 439.574 105.787 439.583 106.674C439.591 107.561 439.347 108.528 438.864 109.52C438.381 110.512 437.668 111.509 436.765 112.455C435.863 113.402 434.79 114.278 433.607 115.034C392.315 141.384 337.556 179.999 305.105 211.387C304.148 212.313 303.031 213.157 301.819 213.871C300.607 214.586 299.323 215.157 298.04 215.553C296.758 215.948 295.502 216.16 294.344 216.176C293.186 216.191 292.148 216.011 291.291 215.645C290.434 215.279 289.774 214.734 289.349 214.042C288.923 213.349 288.74 212.523 288.811 211.61C288.882 210.697 289.204 209.715 289.761 208.72C290.317 207.725 291.096 206.736 292.052 205.811C326.98 172.029 384.18 131.868 426 105.177C428.391 103.652 431.084 102.709 433.486 102.556C435.887 102.402 437.802 103.051 438.808 104.359L438.812 104.351ZM251.828 128.656C250.57 129.272 249.376 130.037 248.313 130.906C247.251 131.774 246.341 132.73 245.637 133.719C244.932 134.707 244.446 135.709 244.206 136.667C243.966 137.624 243.978 138.519 244.239 139.3C251.408 160.854 256.898 188.439 253.854 211.319C253.672 213.145 254.492 214.604 256.139 215.383C257.786 216.163 260.129 216.202 262.669 215.493C265.208 214.783 267.744 213.38 269.733 211.584C271.723 209.788 273.009 207.741 273.318 205.879C276.651 180.848 270.689 151.824 263.389 129.921C262.865 128.343 261.353 127.323 259.187 127.086C257.021 126.849 254.368 127.413 251.828 128.656Z" fill="#D9D9D9"/>
<path d="M114.867 223.751H167.356L110.493 322.241H58.0038L114.867 223.751Z" fill="#D9D9D9"/>
<path fill-rule="evenodd" clip-rule="evenodd" d="M465.504 11.5385L457.557 10.349L459.516 3.03046L474.292 0L465.504 11.5385ZM289.359 116.317L279.623 120.287L279.614 120.271L279.61 120.234L279.592 120.112L279.544 119.68C279.509 119.317 279.448 118.787 279.4 118.112C279.245 116.257 279.147 114.38 279.107 112.483C278.954 106.519 279.374 100.356 280.362 94.0352C281.534 86.8833 283.726 78.6935 287.907 70.7688C292.08 62.8745 298.724 54.3059 309.393 47.5858C318.972 41.5552 333.673 36.0019 348.528 31.1986C363.929 26.2059 381.425 21.4178 397.771 17.2736C418.006 12.1618 438.154 7.50288 458.186 3.3032L459.184 3.09107L459.534 3.01531L457.578 10.3414L465.526 11.5309L465.312 11.8112L464.699 12.6143C461.143 17.2621 457.547 21.9039 453.913 26.5393C445.001 37.9384 435.896 49.3041 426.601 60.632C416.134 73.3675 404.805 86.7166 394.513 97.8915C389.857 103.003 384.946 108.035 379.798 112.968C375.398 117.135 370.7 121.181 366.186 124.029C356.537 130.105 345.877 132.007 337.243 132.492C328.236 132.999 319.108 132.083 311.191 130.749C304.141 129.541 297.359 127.998 290.868 126.128C288.207 125.372 285.594 124.564 283.03 123.703L282.575 123.537L282.453 123.491L282.413 123.484H282.396L289.373 116.309L289.359 116.317ZM289.359 116.317L279.623 120.287L279.933 122.597L282.396 123.484L289.359 116.317ZM298.882 110.006C306.44 112.427 314.433 114.375 322.817 115.839C330.187 117.074 337.868 117.771 344.797 117.377C352.11 116.968 356.528 115.468 358.768 114.059C360.202 113.15 362.932 110.998 366.982 107.165C371.614 102.719 376.034 98.1855 380.222 93.5806C389.994 82.974 400.951 70.0718 411.287 57.503C421.263 45.3427 431.016 33.1382 440.541 20.895L437.444 21.5769C426.312 24.0543 411.191 27.5469 395.173 31.6077C379.125 35.6761 362.359 40.2748 347.885 44.9645C332.864 49.8284 322.073 54.2453 316.794 57.5712C312.577 60.2228 308.837 64.3064 305.771 70.1173C302.714 75.8979 300.837 82.4664 299.792 88.9137C298.646 96.2062 298.342 103.262 298.882 110.006ZM177.378 30.6077L170.887 37.9262L161.557 39.1157L166.097 27.5848L177.383 30.6152L177.378 30.6077ZM208.132 124.044L213.29 128.007L213.316 127.992L213.351 127.961L213.478 127.863L213.941 127.499C216.384 125.553 218.785 123.578 221.141 121.575C225.673 117.726 231.722 112.354 237.618 106.415C243.445 100.536 249.494 93.7246 253.649 87.0879C257.8 80.4739 260.643 73.0947 258.115 67.2611C255.884 62.0942 248.895 57.4878 241.354 53.5786C233.467 49.495 223.695 45.5857 214.278 42.2143C202.607 38.0513 190.581 34.2564 178.218 30.8349L177.597 30.6683L177.378 30.6077L170.887 37.9262L161.557 39.1157L161.47 39.343L161.211 40.0021L160.258 42.4719C155.543 54.7265 151.151 66.9369 147.083 79.095C143.636 89.4592 140.308 100.346 138.169 109.475C137.11 114.036 136.301 118.286 135.955 121.87C135.623 125.279 135.619 128.757 136.703 131.242C139.022 136.621 146.44 138.212 153.115 138.606C160.149 139.03 168.578 138.265 176.333 137.181C186.088 135.789 196.033 133.855 206.094 131.393L206.615 131.264L206.768 131.227L206.82 131.211L208.132 124.044ZM208.132 124.044L213.29 128.007L210.306 130.325L206.82 131.211L208.132 124.044ZM205.893 117.726C212.348 112.465 218.437 106.972 224.098 101.301C229.229 96.1262 233.73 90.9366 236.547 86.4363C239.39 81.9058 239.958 79.0117 239.193 77.2313C238.126 74.7918 233.752 71.3068 226.092 67.3444C218.792 63.5639 209.532 59.844 200.325 56.5484C192.298 53.687 184.099 51.0044 175.733 48.5025L175.659 48.6919C172.947 55.965 169.395 65.7837 166.014 75.9585C162.62 86.156 159.44 96.5884 157.432 105.157C156.435 109.445 155.748 113.15 155.468 116.059C155.175 119.143 155.39 120.711 155.626 121.271C155.936 121.976 157.568 123.166 163.014 123.491C168.096 123.794 174.832 123.249 181.914 122.256C189.788 121.129 197.793 119.621 205.893 117.726ZM145.032 189.957C142.748 190.063 141.506 190.336 141.165 190.442C136.305 191.995 122.168 195.631 110.004 198.7C103.753 200.283 97.7784 201.768 93.365 202.867L93.0763 202.942L69.443 243.876C71.0177 243.816 72.7017 243.763 74.4207 243.71C81.7955 243.482 90.5437 243.255 94.2004 243.391C109.567 243.929 119.487 247.142 128.668 250.119L128.865 250.187C137.473 252.975 145.46 255.536 157.389 256.347C160.757 256.574 163.989 256.869 167.007 257.142H167.051C178.634 258.203 186.358 258.733 193.707 256.779C199.424 255.256 221.246 248.142 243.602 240.361C254.66 236.512 265.582 232.595 274.404 229.239C278.831 227.557 282.628 226.057 285.602 224.8C287.085 224.171 288.283 223.64 289.215 223.209C289.582 223.038 289.946 222.861 290.309 222.678L290.659 222.496C291.975 221.731 294.442 219.064 294.385 216.557C294.354 215.384 293.712 214.47 292.574 213.981C291.205 213.322 288.524 212.814 283.411 213.488C271.881 215.004 256.589 219.443 241.292 223.921L241.078 223.989C233.563 226.186 226.027 228.391 219.545 229.997C213.32 231.535 206.602 232.914 201.593 232.648C194.726 232.27 183.213 230.679 173.791 229.239C168.376 228.414 162.99 227.55 157.634 226.648L156.597 226.474L156.234 226.406L166.574 211.375L206.313 211.791H206.4C206.893 211.748 207.399 211.672 207.914 211.564C209.471 211.261 212.275 210.511 216.312 208.685C217.559 208.117 219.37 207.071 221.307 205.67C222.061 205.121 222.788 204.549 223.486 203.958C218.766 203.689 214.265 203.096 210.022 202.185C207.708 201.695 205.459 201.127 203.282 200.48L203.028 200.404L159.514 190.965L159.09 190.896C156.7 190.522 154.236 190.244 151.707 190.063C149.559 189.902 147.33 189.867 145.032 189.957ZM165.516 183.54L171.399 176.093L171.543 176.115L216.001 185.752L216.312 185.851L216.369 185.873L216.653 185.957L217.839 186.298C218.888 186.585 220.411 186.979 222.265 187.373C226.058 188.169 230.952 188.904 235.869 188.904C240.794 188.904 245.229 190.495 245.5 195.025C245.728 198.904 242.692 203.102 240.225 205.874C238.006 208.326 235.456 210.667 232.649 212.829C235.834 211.92 239.228 210.935 242.797 209.89L243.453 209.693C257.958 205.45 275.349 200.359 289.202 198.533C305.29 196.427 313.776 201.048 313.942 209.594C314.086 217.133 307.35 227.072 296.992 233.118C294.394 234.633 290.943 236.171 287.702 237.543C283.595 239.253 279.477 240.887 275.354 242.444C266.107 245.96 254.843 249.998 243.633 253.9C221.495 261.605 198.509 269.143 191.441 271.022C179.185 274.279 167.781 273.242 157.651 272.317L156.597 272.219C153.535 271.932 150.45 271.68 147.341 271.461C133.37 270.507 123.997 267.469 115.432 264.696L115.249 264.635C106.037 261.65 97.7216 258.991 84.7611 258.529C81.9136 258.43 73.9877 258.612 66.3068 258.854C61.9833 258.988 57.6514 259.137 53.3114 259.301L52.1566 259.347L42.796 259.711L81.8829 192.01L90.828 189.805C98.0878 188.014 105.352 186.2 112.62 184.366C125.361 181.146 138.261 177.805 141.926 176.638C145.863 175.38 149.747 174.971 152.756 174.82C155.95 174.668 159.077 174.782 161.763 174.964C164.99 175.191 168.127 175.553 171.163 176.047L171.329 176.077H171.381L171.394 176.085H171.412L165.516 183.54Z" fill="#0669FD"/>
<path fill-rule="evenodd" clip-rule="evenodd" d="M380.808 55.3514C381.308 55.998 381.57 56.7873 381.579 57.6741C381.588 58.561 381.343 59.528 380.86 60.5199C380.377 61.5119 379.664 62.5094 378.762 63.4554C377.86 64.4015 376.786 65.2776 375.603 66.0337C334.311 92.3836 279.552 130.999 247.101 162.387C246.144 163.313 245.027 164.157 243.815 164.871C242.603 165.586 241.319 166.157 240.037 166.553C238.754 166.948 237.498 167.16 236.34 167.176C235.182 167.191 234.145 167.011 233.287 166.645C232.43 166.279 231.77 165.734 231.345 165.042C230.919 164.349 230.737 163.523 230.807 162.61C230.878 161.697 231.2 160.715 231.757 159.72C232.313 158.725 233.092 157.736 234.049 156.811C268.976 123.029 326.176 82.8679 367.996 56.1772C370.387 54.6522 373.08 53.7093 375.482 53.5558C377.883 53.4024 379.798 54.051 380.804 55.3589L380.808 55.3514ZM193.825 79.6556C192.566 80.2723 191.372 81.0369 190.31 81.9056C189.247 82.7744 188.338 83.7304 187.633 84.7189C186.928 85.7074 186.442 86.7091 186.202 87.6668C185.962 88.6244 185.974 89.5193 186.235 90.3001C193.405 111.854 198.894 139.439 195.85 162.319C195.668 164.145 196.488 165.604 198.135 166.383C199.782 167.163 202.125 167.202 204.665 166.493C207.205 165.783 209.74 164.38 211.729 162.584C213.719 160.788 215.005 158.741 215.314 156.879C218.647 131.848 212.686 102.824 205.385 80.9209C204.861 79.3429 203.349 78.3232 201.183 78.086C199.017 77.8487 196.364 78.4133 193.825 79.6556Z" fill="#0669FD"/>
<path d="M56.863 174.751H109.352L52.489 273.241H-0.000152588L56.863 174.751Z" fill="#0669FD"/>
</svg>
