<svg width="655" height="436" viewBox="0 0 655 436" fill="none" xmlns="http://www.w3.org/2000/svg">
<g clip-path="url(#clip0_243_2)">
<path d="M250.788 334.921L243.107 348.302C242.067 350.114 240.406 351.684 238.126 353.011C235.845 354.339 233.665 355.006 231.585 355.011L216.221 355.05C214.14 355.055 212.72 354.397 211.96 353.077C211.2 351.757 211.339 350.19 212.38 348.378L220.06 334.998C221.101 333.186 222.761 331.616 225.041 330.288C227.322 328.96 229.502 328.293 231.583 328.288L246.946 328.25C249.027 328.244 250.447 328.902 251.207 330.222C251.968 331.543 251.828 333.109 250.788 334.921ZM281.511 281.398L273.83 294.778C272.79 296.59 271.13 298.16 268.849 299.488C266.569 300.816 264.388 301.483 262.308 301.488L246.944 301.526C244.864 301.532 243.444 300.874 242.683 299.554C241.923 298.233 242.063 296.667 243.103 294.855L250.784 281.474C251.824 279.663 253.484 278.093 255.765 276.765C258.045 275.437 260.226 274.77 262.306 274.765L277.67 274.726C279.75 274.721 281.171 275.379 281.931 276.699C282.691 278.02 282.551 279.586 281.511 281.398ZM342.965 281.244L335.285 294.625C334.244 296.437 332.584 298.007 330.304 299.335C328.023 300.663 325.843 301.329 323.762 301.334L308.399 301.373C306.318 301.378 304.898 300.72 304.138 299.4C303.377 298.08 303.517 296.514 304.557 294.702L312.238 281.321C313.278 279.509 314.939 277.939 317.219 276.611C319.499 275.283 321.68 274.616 323.76 274.611L339.124 274.573C341.204 274.568 342.625 275.225 343.385 276.545C344.145 277.866 344.005 279.432 342.965 281.244ZM312.234 227.875L304.554 241.255C303.513 243.067 301.853 244.637 299.573 245.965C297.292 247.293 295.112 247.96 293.031 247.965L277.668 248.003C275.587 248.009 274.167 247.351 273.407 246.031C272.646 244.71 272.786 243.144 273.826 241.332L281.507 227.951C282.547 226.139 284.208 224.569 286.488 223.241C288.769 221.914 290.949 221.247 293.029 221.242L308.393 221.203C310.474 221.198 311.894 221.856 312.654 223.176C313.414 224.496 313.275 226.063 312.234 227.875ZM435.151 334.46L427.47 347.841C426.43 349.653 424.769 351.222 422.489 352.55C420.209 353.878 418.028 354.545 415.948 354.55L400.584 354.589C398.504 354.594 397.083 353.936 396.323 352.616C395.563 351.296 395.703 349.729 396.743 347.917L404.424 334.537C405.464 332.725 407.124 331.155 409.404 329.827C411.685 328.499 413.865 327.832 415.946 327.827L431.309 327.789C433.39 327.783 434.81 328.441 435.57 329.761C436.331 331.082 436.191 332.648 435.151 334.46ZM404.42 281.09L396.739 294.471C395.699 296.283 394.038 297.853 391.758 299.181C389.478 300.509 387.297 301.175 385.217 301.181L369.853 301.219C367.773 301.224 366.352 300.567 365.592 299.246C364.832 297.926 364.972 296.36 366.012 294.548L373.693 281.167C374.733 279.355 376.393 277.785 378.673 276.457C380.954 275.129 383.134 274.463 385.215 274.458L400.578 274.419C402.659 274.414 404.079 275.071 404.839 276.392C405.6 277.712 405.46 279.278 404.42 281.09ZM373.689 227.721L366.008 241.102C364.968 242.914 363.308 244.484 361.027 245.812C358.747 247.139 356.566 247.806 354.486 247.811L339.122 247.85C337.042 247.855 335.621 247.197 334.861 245.877C334.101 244.557 334.241 242.99 335.281 241.178L342.962 227.798C344.002 225.986 345.662 224.416 347.942 223.088C350.223 221.76 352.403 221.093 354.484 221.088L369.847 221.05C371.928 221.044 373.348 221.702 374.109 223.022C374.869 224.343 374.729 225.909 373.689 227.721ZM465.874 280.937L458.193 294.317C457.153 296.129 455.493 297.699 453.212 299.027C450.932 300.355 448.751 301.022 446.671 301.027L431.307 301.065C429.227 301.071 427.807 300.413 427.046 299.093C426.286 297.772 426.426 296.206 427.466 294.394L435.147 281.013C436.187 279.201 437.847 277.632 440.128 276.304C442.408 274.976 444.589 274.309 446.669 274.304L462.033 274.265C464.113 274.26 465.534 274.918 466.294 276.238C467.054 277.558 466.914 279.125 465.874 280.937ZM435.143 227.567L427.462 240.948C426.422 242.76 424.762 244.33 422.481 245.658C420.201 246.986 418.021 247.652 415.94 247.658L400.576 247.696C398.496 247.701 397.076 247.044 396.315 245.723C395.555 244.403 395.695 242.837 396.735 241.025L404.416 227.644C405.456 225.832 407.116 224.262 409.397 222.934C411.677 221.606 413.858 220.94 415.938 220.934L431.302 220.896C433.382 220.891 434.803 221.548 435.563 222.869C436.323 224.189 436.183 225.755 435.143 227.567ZM496.597 227.413L488.917 240.794C487.876 242.606 486.216 244.176 483.936 245.504C481.655 246.832 479.475 247.499 477.394 247.504L462.031 247.542C459.95 247.547 458.53 246.89 457.77 245.57C457.009 244.249 457.149 242.683 458.189 240.871L465.87 227.49C466.91 225.678 468.571 224.108 470.851 222.78C473.132 221.452 475.312 220.786 477.393 220.781L492.756 220.742C494.837 220.737 496.257 221.395 497.017 222.715C497.778 224.035 497.638 225.601 496.597 227.413ZM331.452 408.208L423.633 407.977L561.888 167.123L500.434 167.277L496.594 173.967C493.393 179.542 488.432 184.287 481.711 188.201C474.99 192.115 468.429 194.08 462.027 194.096L354.482 194.365C348.08 194.381 343.759 192.443 341.518 188.552C339.278 184.66 339.757 179.927 342.958 174.351L346.798 167.661L285.344 167.815L147.089 408.669L239.27 408.438L266.153 361.606C267.193 359.794 268.853 358.224 271.134 356.896C273.414 355.568 275.595 354.901 277.675 354.896L354.493 354.704C356.574 354.699 357.994 355.356 358.754 356.677C359.515 357.997 359.375 359.563 358.335 361.375L331.452 408.208ZM473.547 160.663L511.952 93.7593C512.992 91.9473 513.132 90.3811 512.371 89.0608C511.611 87.7405 510.191 87.0829 508.11 87.0881L492.747 87.1265C490.666 87.1317 488.486 87.7983 486.205 89.1262C483.925 90.4542 482.265 92.0241 481.224 93.8361L469.703 113.907L438.976 113.984L450.497 93.913C451.537 92.101 451.677 90.5348 450.917 89.2145C450.157 87.8942 448.736 87.2366 446.656 87.2418L431.292 87.2802C429.212 87.2854 427.031 87.952 424.751 89.2799C422.47 90.6079 420.81 92.1778 419.77 93.9898L381.366 160.894C380.326 162.706 380.186 164.272 380.946 165.592C381.706 166.913 383.127 167.57 385.207 167.565L400.571 167.527C402.651 167.521 404.832 166.855 407.112 165.527C409.393 164.199 411.053 162.629 412.093 160.817L423.614 140.746L454.341 140.669L442.82 160.74C441.78 162.552 441.64 164.118 442.4 165.439C443.161 166.759 444.581 167.416 446.662 167.411L462.025 167.373C464.106 167.368 466.286 166.701 468.567 165.373C470.847 164.045 472.507 162.475 473.547 160.663ZM600.296 153.665L446.68 421.281C444.599 424.905 441.279 428.045 436.718 430.701C432.157 433.357 427.796 434.69 423.635 434.7L116.363 435.469C112.202 435.479 109.362 434.164 107.841 431.523C106.321 428.883 106.6 425.75 108.681 422.126L262.298 154.511C264.378 150.887 267.698 147.747 272.259 145.091C276.82 142.435 281.181 141.102 285.342 141.092L362.16 140.899L396.724 80.6859C399.924 75.1105 404.885 70.3659 411.606 66.452C418.327 62.538 424.889 60.5731 431.29 60.5571L538.835 60.2881C545.237 60.2721 549.558 62.2099 551.799 66.1014C554.04 69.9929 553.56 74.7263 550.36 80.3017L515.796 140.515L592.614 140.323C596.775 140.313 599.615 141.628 601.136 144.269C602.657 146.909 602.377 150.042 600.296 153.665Z" fill="#D9D9D9"/>
</g>
<path d="M149.788 274.921L142.107 288.302C141.067 290.114 139.407 291.684 137.126 293.011C134.846 294.339 132.666 295.006 130.585 295.011L115.221 295.05C113.141 295.055 111.721 294.397 110.96 293.077C110.2 291.757 110.34 290.19 111.38 288.378L119.061 274.998C120.101 273.186 121.761 271.616 124.042 270.288C126.322 268.96 128.503 268.293 130.583 268.288L145.947 268.25C148.027 268.244 149.448 268.902 150.208 270.222C150.968 271.543 150.828 273.109 149.788 274.921ZM180.512 221.398L172.831 234.778C171.791 236.59 170.13 238.16 167.85 239.488C165.569 240.816 163.389 241.483 161.308 241.488L145.945 241.526C143.864 241.532 142.444 240.874 141.684 239.554C140.923 238.233 141.063 236.667 142.103 234.855L149.784 221.474C150.824 219.663 152.485 218.093 154.765 216.765C157.046 215.437 159.226 214.77 161.307 214.765L176.67 214.726C178.751 214.721 180.171 215.379 180.931 216.699C181.692 218.02 181.552 219.586 180.512 221.398ZM241.966 221.244L234.285 234.625C233.245 236.437 231.585 238.007 229.304 239.335C227.024 240.663 224.843 241.329 222.763 241.334L207.399 241.373C205.319 241.378 203.898 240.72 203.138 239.4C202.378 238.08 202.518 236.514 203.558 234.702L211.239 221.321C212.279 219.509 213.939 217.939 216.22 216.611C218.5 215.283 220.68 214.616 222.761 214.611L238.124 214.573C240.205 214.568 241.625 215.225 242.386 216.545C243.146 217.866 243.006 219.432 241.966 221.244ZM211.235 167.875L203.554 181.255C202.514 183.067 200.854 184.637 198.573 185.965C196.293 187.293 194.112 187.96 192.032 187.965L176.668 188.003C174.588 188.009 173.167 187.351 172.407 186.031C171.647 184.71 171.787 183.144 172.827 181.332L180.508 167.951C181.548 166.139 183.208 164.569 185.489 163.241C187.769 161.914 189.949 161.247 192.03 161.242L207.394 161.203C209.474 161.198 210.894 161.856 211.655 163.176C212.415 164.496 212.275 166.063 211.235 167.875ZM334.151 274.46L326.47 287.841C325.43 289.653 323.77 291.222 321.489 292.55C319.209 293.878 317.029 294.545 314.948 294.55L299.585 294.589C297.504 294.594 296.084 293.936 295.323 292.616C294.563 291.296 294.703 289.729 295.743 287.917L303.424 274.537C304.464 272.725 306.124 271.155 308.405 269.827C310.685 268.499 312.866 267.832 314.946 267.827L330.31 267.789C332.39 267.783 333.811 268.441 334.571 269.761C335.331 271.082 335.191 272.648 334.151 274.46ZM303.42 221.09L295.739 234.471C294.699 236.283 293.039 237.853 290.759 239.181C288.478 240.509 286.298 241.175 284.217 241.181L268.854 241.219C266.773 241.224 265.353 240.567 264.592 239.246C263.832 237.926 263.972 236.36 265.012 234.548L272.693 221.167C273.733 219.355 275.393 217.785 277.674 216.457C279.954 215.129 282.135 214.463 284.215 214.458L299.579 214.419C301.659 214.414 303.08 215.071 303.84 216.392C304.6 217.712 304.46 219.278 303.42 221.09ZM272.689 167.721L265.008 181.102C263.968 182.914 262.308 184.484 260.028 185.812C257.747 187.139 255.567 187.806 253.486 187.811L238.123 187.85C236.042 187.855 234.622 187.197 233.861 185.877C233.101 184.557 233.241 182.99 234.281 181.178L241.962 167.798C243.002 165.986 244.662 164.416 246.943 163.088C249.223 161.76 251.404 161.093 253.484 161.088L268.848 161.05C270.928 161.044 272.349 161.702 273.109 163.022C273.869 164.343 273.729 165.909 272.689 167.721ZM364.875 220.937L357.194 234.317C356.154 236.129 354.493 237.699 352.213 239.027C349.932 240.355 347.752 241.022 345.671 241.027L330.308 241.065C328.227 241.071 326.807 240.413 326.047 239.093C325.286 237.772 325.426 236.206 326.467 234.394L334.147 221.013C335.187 219.201 336.848 217.632 339.128 216.304C341.409 214.976 343.589 214.309 345.67 214.304L361.033 214.265C363.114 214.26 364.534 214.918 365.294 216.238C366.055 217.558 365.915 219.125 364.875 220.937ZM334.144 167.567L326.463 180.948C325.423 182.76 323.762 184.33 321.482 185.658C319.201 186.986 317.021 187.652 314.941 187.658L299.577 187.696C297.496 187.701 296.076 187.044 295.316 185.723C294.556 184.403 294.695 182.837 295.736 181.025L303.416 167.644C304.457 165.832 306.117 164.262 308.397 162.934C310.678 161.606 312.858 160.94 314.939 160.934L330.302 160.896C332.383 160.891 333.803 161.548 334.563 162.869C335.324 164.189 335.184 165.755 334.144 167.567ZM395.598 167.413L387.917 180.794C386.877 182.606 385.217 184.176 382.936 185.504C380.656 186.832 378.475 187.499 376.395 187.504L361.031 187.542C358.951 187.547 357.53 186.89 356.77 185.57C356.01 184.249 356.15 182.683 357.19 180.871L364.871 167.49C365.911 165.678 367.571 164.108 369.852 162.78C372.132 161.452 374.312 160.786 376.393 160.781L391.757 160.742C393.837 160.737 395.257 161.395 396.018 162.715C396.778 164.035 396.638 165.601 395.598 167.413ZM230.452 348.208L322.634 347.977L460.889 107.123L399.435 107.277L395.594 113.967C392.394 119.542 387.433 124.287 380.712 128.201C373.99 132.115 367.429 134.08 361.028 134.096L253.482 134.365C247.081 134.381 242.76 132.443 240.519 128.552C238.278 124.66 238.758 119.927 241.958 114.351L245.799 107.661L184.344 107.815L46.0891 348.669L138.271 348.438L165.154 301.606C166.194 299.794 167.854 298.224 170.134 296.896C172.415 295.568 174.595 294.901 176.676 294.896L253.494 294.704C255.574 294.699 256.995 295.356 257.755 296.677C258.515 297.997 258.375 299.563 257.335 301.375L230.452 348.208ZM372.548 100.663L410.952 33.7593C411.992 31.9473 412.132 30.3811 411.372 29.0608C410.612 27.7405 409.191 27.0829 407.111 27.0881L391.747 27.1265C389.667 27.1317 387.486 27.7983 385.206 29.1262C382.925 30.4542 381.265 32.0241 380.225 33.8361L368.704 53.9073L337.976 53.9842L349.498 33.913C350.538 32.101 350.678 30.5348 349.917 29.2145C349.157 27.8942 347.737 27.2366 345.656 27.2418L330.293 27.2802C328.212 27.2854 326.032 27.952 323.751 29.2799C321.471 30.6079 319.811 32.1778 318.771 33.9898L280.366 100.894C279.326 102.706 279.186 104.272 279.947 105.592C280.707 106.913 282.127 107.57 284.208 107.565L299.571 107.527C301.652 107.521 303.832 106.855 306.113 105.527C308.393 104.199 310.053 102.629 311.093 100.817L322.615 80.7457L353.342 80.6689L341.821 100.74C340.781 102.552 340.641 104.118 341.401 105.439C342.161 106.759 343.582 107.416 345.662 107.411L361.026 107.373C363.106 107.368 365.287 106.701 367.567 105.373C369.847 104.045 371.508 102.475 372.548 100.663ZM499.297 93.6655L345.68 361.281C343.6 364.905 340.279 368.045 335.718 370.701C331.157 373.357 326.797 374.69 322.636 374.7L15.3638 375.469C11.2028 375.479 8.36208 374.164 6.84155 371.523C5.321 368.883 5.60085 365.75 7.68107 362.126L161.298 94.5107C163.378 90.8868 166.699 87.7468 171.26 85.0909C175.821 82.4351 180.181 81.1019 184.342 81.0915L261.16 80.8994L295.724 20.6859C298.925 15.1105 303.885 10.3659 310.607 6.45198C317.328 2.53804 323.889 0.573068 330.291 0.557059L437.836 0.288114C444.237 0.272105 448.559 2.20986 450.799 6.10139C453.04 9.99291 452.56 14.7263 449.36 20.3017L414.796 80.5152L491.614 80.3231C495.775 80.3127 498.616 81.6278 500.136 84.2685C501.657 86.9092 501.377 90.0415 499.297 93.6655Z" fill="#0669FD"/>
<defs>
<clipPath id="clip0_243_2">
<rect width="338" height="432" fill="white" transform="matrix(0.999997 -0.00250076 -0.497833 0.867273 316.063 60.8452)"/>
</clipPath>
</defs>
</svg>
