<svg width="841" height="500" viewBox="0 0 841 500" fill="none" xmlns="http://www.w3.org/2000/svg">
<g clip-path="url(#clip0_243_3)">
<path d="M392.183 218.391C388.875 218.398 385.046 219.544 381.541 221.578C378.036 223.612 375.141 226.366 373.492 229.235L336.201 294.141C334.553 297.01 334.287 299.759 335.461 301.783C336.635 303.807 339.153 304.94 342.462 304.933L567.03 304.458C570.339 304.451 574.167 303.305 577.673 301.271C581.178 299.237 584.073 296.483 585.721 293.614L623.012 228.708C624.661 225.839 624.927 223.09 623.753 221.066C622.579 219.042 620.06 217.909 616.752 217.916L392.183 218.391ZM367.368 283.271L392.229 240L591.845 239.578L566.985 282.849L367.368 283.271ZM479.744 326.252C476.435 326.259 472.607 327.405 469.102 329.439C465.596 331.472 462.701 334.227 461.053 337.096L436.192 380.367C434.544 383.236 434.277 385.984 435.451 388.008C436.626 390.032 439.144 391.165 442.453 391.158L517.309 391C520.618 390.993 524.446 389.846 527.951 387.813C531.456 385.779 534.352 383.025 536 380.156L560.861 336.885C562.509 334.016 562.776 331.267 561.601 329.243C560.427 327.22 557.909 326.087 554.6 326.093L479.744 326.252ZM467.359 369.496L479.79 347.861L529.694 347.755L517.263 369.391L467.359 369.496ZM335.927 164.487C340.872 155.88 349.558 147.617 360.074 141.516C370.59 135.415 382.074 131.976 392.001 131.955L716.377 131.269C725.222 131.239 732.229 133.922 736.155 138.844C740.081 143.765 740.674 150.607 737.829 158.158C734.983 165.708 728.883 173.48 720.608 180.097C712.333 186.714 702.418 191.749 692.619 194.31L561.043 423.321C559.395 426.19 556.5 428.945 552.995 430.978C549.489 433.012 545.661 434.158 542.352 434.165L217.976 434.851C214.667 434.858 212.149 433.725 210.975 431.701C209.8 429.677 210.067 426.929 211.715 424.059L343.29 195.048C337.276 192.826 333.338 188.693 332.019 183.219C330.7 177.746 332.066 171.201 335.927 164.487ZM379.57 153.59C376.262 153.597 372.433 154.743 368.928 156.777C365.423 158.811 362.528 161.565 360.879 164.434C359.231 167.303 358.964 170.052 360.139 172.076C361.313 174.099 363.831 175.233 367.14 175.226L691.516 174.54C694.825 174.533 698.653 173.386 702.159 171.353C705.664 169.319 708.559 166.565 710.207 163.696C711.856 160.827 712.122 158.078 710.948 156.054C709.774 154.03 707.255 152.897 703.947 152.904L379.57 153.59ZM367.186 196.835L242.882 413.189L267.834 413.136L311.341 337.412C312.989 334.543 315.884 331.789 319.39 329.755C322.895 327.722 326.723 326.575 330.032 326.568L429.84 326.357C433.149 326.35 435.667 327.483 436.841 329.507C438.015 331.531 437.749 334.28 436.101 337.149L392.595 412.873L542.307 412.556L666.61 196.202L367.186 196.835ZM292.786 413.084L367.643 412.925L404.934 348.019L330.077 348.177L292.786 413.084Z" fill="#D9D9D9"/>
</g>
<g clip-path="url(#clip1_243_3)">
<path d="M299.818 153.066C296.509 153.073 292.681 154.22 289.176 156.253C285.671 158.287 282.775 161.041 281.127 163.91L243.836 228.817C242.188 231.686 241.921 234.434 243.095 236.458C244.27 238.482 246.788 239.615 250.097 239.608L474.665 239.133C477.974 239.126 481.802 237.98 485.307 235.946C488.813 233.913 491.708 231.158 493.356 228.289L530.647 163.383C532.296 160.514 532.562 157.765 531.388 155.741C530.214 153.718 527.695 152.585 524.386 152.592L299.818 153.066ZM275.003 217.946L299.864 174.675L499.48 174.253L474.619 217.524L275.003 217.946ZM387.379 260.927C384.07 260.934 380.242 262.08 376.736 264.114C373.231 266.148 370.336 268.902 368.687 271.771L343.827 315.042C342.178 317.911 341.912 320.66 343.086 322.684C344.26 324.707 346.779 325.84 350.088 325.833L424.944 325.675C428.253 325.668 432.081 324.522 435.586 322.488C439.091 320.454 441.987 317.7 443.635 314.831L468.496 271.56C470.144 268.691 470.41 265.942 469.236 263.919C468.062 261.895 465.544 260.762 462.235 260.769L387.379 260.927ZM374.994 304.172L387.424 282.536L437.328 282.431L424.898 304.066L374.994 304.172ZM243.562 99.1622C248.507 90.5551 257.193 82.2921 267.709 76.1912C278.225 70.0902 289.709 66.6509 299.636 66.6299L624.012 65.9443C632.857 65.9142 639.864 68.5975 643.79 73.5189C647.716 78.4403 648.309 85.2822 645.463 92.8329C642.618 100.384 636.517 108.156 628.243 114.773C619.968 121.39 610.053 126.424 600.253 128.985L468.678 357.996C467.03 360.865 464.135 363.62 460.629 365.653C457.124 367.687 453.296 368.834 449.987 368.841L125.611 369.526C122.302 369.533 119.784 368.4 118.609 366.376C117.435 364.353 117.702 361.604 119.35 358.735L250.925 129.724C244.911 127.501 240.972 123.368 239.654 117.895C238.335 112.421 239.7 105.876 243.562 99.1622ZM287.205 88.2654C283.896 88.2724 280.068 89.4188 276.563 91.4524C273.058 93.4861 270.162 96.2404 268.514 99.1094C266.866 101.978 266.599 104.727 267.773 106.751C268.948 108.775 271.466 109.908 274.775 109.901L599.151 109.215C602.46 109.208 606.288 108.062 609.793 106.028C613.299 103.994 616.194 101.24 617.842 98.3711C619.491 95.5021 619.757 92.7533 618.583 90.7295C617.409 88.7058 614.89 87.5728 611.581 87.5797L287.205 88.2654ZM274.821 131.51L150.517 347.864L175.469 347.812L218.975 272.088C220.624 269.218 223.519 266.464 227.024 264.431C230.53 262.397 234.358 261.25 237.667 261.243L337.475 261.032C340.783 261.025 343.302 262.158 344.476 264.182C345.65 266.206 345.384 268.955 343.735 271.824L300.229 347.548L449.941 347.231L574.245 130.877L274.821 131.51ZM200.421 347.759L275.277 347.601L312.568 282.694L237.712 282.853L200.421 347.759Z" fill="#0669FD"/>
</g>
<defs>
<clipPath id="clip0_243_3">
<rect width="499.041" height="499.041" fill="white" transform="matrix(0.999998 -0.00211362 -0.498168 0.86708 341.96 67.2329)"/>
</clipPath>
<clipPath id="clip1_243_3">
<rect width="499.041" height="499.041" fill="white" transform="matrix(0.999998 -0.00211362 -0.498168 0.86708 249.595 1.9082)"/>
</clipPath>
</defs>
</svg>
