<svg width="422" height="403" viewBox="0 0 422 403" fill="none" xmlns="http://www.w3.org/2000/svg">
<path fill-rule="evenodd" clip-rule="evenodd" d="M165 403C259.6 379.919 330 284.848 330 183.182V141.231C339.28 150.25 350.554 156.902 363 160C396.827 151.581 422 116.902 422 79.8182V39.7273L363 13L304 39.7273V61.7267L165 0L0 73.2727V183.182C0 284.848 70.4 379.919 165 403ZM317.111 67.5491L304 61.7267V79.8182C304 103.258 314.057 125.737 330 141.231V121.072C338.465 133.555 350.295 143.183 363 146.636C387.583 139.955 408.889 110.154 408.889 81.2882V48.4136L363 27.5664L317.111 48.4136V67.5491ZM317.111 67.5491L330 73.2727V121.072C322.085 109.401 317.111 95.2356 317.111 81.2882V67.5491ZM293.333 187.212C293.333 266.346 233.75 348.045 165 366.364C96.25 348.045 36.6667 266.346 36.6667 187.212V97.0864L165 39.9336L293.333 97.0864V187.212ZM216.333 155.705V183.182C227.333 183.182 238.333 194.173 238.333 206.995V271.109C238.333 282.1 227.333 293.091 214.5 293.091H113.667C102.667 293.091 91.6667 282.1 91.6667 269.277V205.164C91.6667 194.173 102.667 183.182 113.667 183.182V155.705C113.667 130.059 139.333 109.909 165 109.909C190.667 109.909 216.333 130.059 216.333 155.705ZM137.5 183.182H192.5V155.705C192.5 141.05 179.667 131.891 165 131.891C150.333 131.891 137.5 141.05 137.5 155.705V183.182ZM381.356 69.7955V79.8182C385.289 79.8182 389.222 83.8273 389.222 88.5045V111.891C389.222 115.9 385.289 119.909 380.7 119.909H344.644C340.711 119.909 336.778 115.9 336.778 111.223V87.8364C336.778 83.8273 340.711 79.8182 344.644 79.8182V69.7955C344.644 60.4409 353.822 53.0909 363 53.0909C372.178 53.0909 381.356 60.4409 381.356 69.7955ZM353.167 79.8182H372.833V69.7955C372.833 64.45 368.244 61.1091 363 61.1091C357.756 61.1091 353.167 64.45 353.167 69.7955V79.8182Z" fill="#0669FD"/>
</svg>
