<svg width="110" height="110" viewBox="0 0 110 110" fill="none" xmlns="http://www.w3.org/2000/svg">
<circle cx="55" cy="55" r="55" fill="#0669FD"/>
<path d="M54.9998 49.9167C58.4256 49.9167 61.711 51.2775 64.1333 53.6999C66.5556 56.1222 67.9165 59.4076 67.9165 62.8334V78.3334H42.0832V62.8334C42.0832 59.4076 43.444 56.1222 45.8664 53.6999C48.2887 51.2775 51.5741 49.9167 54.9998 49.9167ZM37.6605 57.6822C37.2494 59.0689 37.0065 60.5 36.9372 61.9447L36.9165 62.8334V78.3334H29.1665V66.7084C29.166 64.4804 29.9881 62.3307 31.4751 60.6716C32.962 59.0126 35.0092 57.9609 37.2239 57.7184L37.6605 57.6822ZM72.3392 57.6822C74.6381 57.8223 76.797 58.8342 78.3754 60.5115C79.9538 62.1889 80.8328 64.4052 80.8332 66.7084V78.3334H73.0832V62.8334C73.0832 61.0431 72.8248 59.3149 72.3392 57.6822ZM38.2082 42.1667C39.921 42.1667 41.5637 42.8471 42.7749 44.0583C43.9861 45.2695 44.6665 46.9122 44.6665 48.625C44.6665 50.3379 43.9861 51.9806 42.7749 53.1918C41.5637 54.4029 39.921 55.0834 38.2082 55.0834C36.4953 55.0834 34.8526 54.4029 33.6414 53.1918C32.4303 51.9806 31.7498 50.3379 31.7498 48.625C31.7498 46.9122 32.4303 45.2695 33.6414 44.0583C34.8526 42.8471 36.4953 42.1667 38.2082 42.1667ZM71.7915 42.1667C73.5044 42.1667 75.1471 42.8471 76.3582 44.0583C77.5694 45.2695 78.2498 46.9122 78.2498 48.625C78.2498 50.3379 77.5694 51.9806 76.3582 53.1918C75.1471 54.4029 73.5044 55.0834 71.7915 55.0834C70.0787 55.0834 68.4359 54.4029 67.2248 53.1918C66.0136 51.9806 65.3332 50.3379 65.3332 48.625C65.3332 46.9122 66.0136 45.2695 67.2248 44.0583C68.4359 42.8471 70.0787 42.1667 71.7915 42.1667ZM54.9998 26.6667C57.7404 26.6667 60.3687 27.7554 62.3066 29.6933C64.2445 31.6311 65.3332 34.2595 65.3332 37C65.3332 39.7406 64.2445 42.3689 62.3066 44.3068C60.3687 46.2447 57.7404 47.3334 54.9998 47.3334C52.2593 47.3334 49.6309 46.2447 47.6931 44.3068C45.7552 42.3689 44.6665 39.7406 44.6665 37C44.6665 34.2595 45.7552 31.6311 47.6931 29.6933C49.6309 27.7554 52.2593 26.6667 54.9998 26.6667Z" fill="white"/>
</svg>
