<svg width="149" height="135" viewBox="0 0 149 135" fill="none" xmlns="http://www.w3.org/2000/svg">
<path d="M123.469 88.5631C123.861 88.0937 124.181 87.5681 124.404 86.9989C126.766 80.9758 128.043 74.5403 128.043 67.4999C128.043 64.1894 127.727 60.9649 127.15 57.8621C126.571 54.7457 123.425 52.9665 120.287 53.4121C117.205 53.8498 114.038 54.0774 110.785 54.0774C100.062 54.0889 89.4925 51.5221 79.9688 46.5934C73.6838 43.3408 67.9756 39.1225 63.043 34.1115C59.7262 30.7422 53.592 31.4289 51.1112 35.4537C44.5899 46.034 35.2589 54.6688 24.096 60.3493C22.2962 61.2651 20.9665 62.9505 20.9082 64.969C20.8838 65.8144 20.8838 66.6642 20.8838 67.4999C20.8838 74.5409 22.2706 81.5129 24.965 88.018C27.6595 94.523 31.6089 100.434 36.5876 105.412C46.6426 115.467 60.2801 121.116 74.5 121.116C81.155 121.116 87.5921 119.863 93.5305 117.592C95.1629 116.967 98.1632 119.775 98.9598 121.331C102.077 127.417 99.1014 129.641 92.5046 131.439C85.0743 133.465 79.0465 134.465 74.5 134.465C56.6525 134.465 39.6163 127.459 27.0788 114.847C20.435 108.224 15.2767 100.283 11.9254 91.5542C11.0396 89.2473 8.87735 87.6337 6.40621 87.6337C3.28237 87.6337 0.75 85.1013 0.75 81.9774V58.5054C0.75 56.0599 2.73247 54.0774 5.17798 54.0774C7.28002 54.0774 9.07703 52.5949 9.61026 50.5616C12.3654 40.0558 17.6376 30.3578 24.993 22.3176C33.1623 13.3878 43.5966 6.83614 55.1888 3.35772C66.781 -0.120686 79.0986 -0.396053 90.8346 2.56084C102.571 5.51774 113.287 11.5966 121.848 20.1524C130.269 28.541 136.265 39.0225 139.238 50.4853C139.776 52.5604 141.606 54.0774 143.75 54.0774C146.235 54.0774 148.25 56.0921 148.25 58.5774V87.3152C148.25 87.4911 148.107 87.6337 147.932 87.6337C147.852 87.6337 147.775 87.6636 147.716 87.7176L123.568 109.899C122.288 111.075 120.561 111.638 118.834 111.442L87.7901 107.928C84.7569 107.584 82.465 105.018 82.465 101.966V101.009C82.465 97.695 85.1513 95.0087 88.465 95.0087H115.28C117.058 95.0087 118.745 94.2196 119.885 92.8544L123.469 88.5631ZM54.3663 65.8037C56.5788 65.8037 58.7175 66.6887 60.2663 68.3112C61.8227 69.8803 62.6961 72.001 62.6961 74.2112C62.6961 76.4213 61.8227 78.542 60.2663 80.1112C58.7175 81.6599 56.5788 82.5449 54.3663 82.5449C49.72 82.5449 45.9588 78.8574 45.9588 74.2112C45.9588 69.5649 49.72 65.8037 54.3663 65.8037ZM94.56 65.8037C99.2063 65.8037 102.894 69.5649 102.894 74.2112C102.894 78.8574 99.2063 82.5449 94.56 82.5449C89.9138 82.5449 86.1525 78.8574 86.1525 74.2112C86.1525 71.9814 87.0383 69.8429 88.615 68.2662C90.1917 66.6894 92.3302 65.8037 94.56 65.8037Z" fill="#0669FD"/>
</svg>
