<svg width="40" height="41" viewBox="0 0 40 41" fill="none" xmlns="http://www.w3.org/2000/svg">
<path d="M37.1429 0.857178H2.84821C1.27679 0.857178 0 2.15182 0 3.74111V37.9733C0 39.5625 1.27679 40.8572 2.84821 40.8572H37.1429C38.7143 40.8572 40 39.5625 40 37.9733V3.74111C40 2.15182 38.7143 0.857178 37.1429 0.857178ZM12.0893 35.1429H6.16071V16.0536H12.0982V35.1429H12.0893ZM9.125 13.4465C7.22321 13.4465 5.6875 11.9018 5.6875 10.009C5.6875 8.11611 7.22321 6.57146 9.125 6.57146C11.0179 6.57146 12.5625 8.11611 12.5625 10.009C12.5625 11.9107 11.0268 13.4465 9.125 13.4465ZM34.3125 35.1429H28.3839V25.8572C28.3839 23.6429 28.3393 20.7947 25.3036 20.7947C22.2143 20.7947 21.7411 23.2054 21.7411 25.6965V35.1429H15.8125V16.0536H21.5V18.6607H21.5804C22.375 17.1607 24.3125 15.5804 27.1964 15.5804C33.1964 15.5804 34.3125 19.5357 34.3125 24.6786V35.1429Z" fill="#ffffff"/>
</svg>
