<svg width="172" height="99" viewBox="0 0 172 99" fill="none" xmlns="http://www.w3.org/2000/svg">
<path d="M53.3297 44.7626L45.9935 57.0041C45.6128 57.6394 44.6358 57.3419 44.6737 56.6022L46.4114 22.7262C46.4531 21.9136 45.3183 21.6795 45.035 22.4421L31.3732 59.2131C31.0948 59.9626 29.9824 59.7529 29.9959 58.9535L30.8551 8.0499C30.8686 7.2481 29.7512 7.04086 29.4763 7.79418L9.92415 61.3733" stroke="#0669FD" stroke-width="4.39137" stroke-linecap="round"/>
<path d="M51.1769 56.9207L56.6477 47.5911C57.0143 46.9658 57.9719 47.2258 57.9719 47.9507L57.9719 57.2803C57.9719 57.673 57.6536 57.9913 57.2609 57.9913L51.7902 57.9913C51.2407 57.9913 50.8989 57.3946 51.1769 56.9207Z" fill="#0669FD"/>
<path d="M71.4058 58.6835C69.4466 58.6835 67.6924 58.2278 66.1432 57.3165C64.5941 56.4053 63.3866 55.1523 62.5209 53.5576C61.6552 51.9173 61.2224 50.0947 61.2224 48.0899C61.2224 46.1307 61.6552 44.3765 62.5209 42.8273C63.3866 41.2782 64.5941 40.0707 66.1432 39.205C67.6924 38.2938 69.4466 37.8381 71.4058 37.8381C72.6816 37.8381 73.8207 38.066 74.8231 38.5216C75.8255 38.9317 76.6912 39.4784 77.4202 40.1619C77.5113 39.524 77.7847 39.0456 78.2404 38.7266C78.696 38.3621 79.1972 38.1799 79.744 38.1799C80.3363 38.1799 80.8603 38.3849 81.3159 38.795C81.8171 39.1595 82.0677 39.729 82.0677 40.5036V56.5647C82.0677 57.2482 81.8171 57.7722 81.3159 58.1367C80.8603 58.5012 80.3363 58.6835 79.744 58.6835C79.1516 58.6835 78.6049 58.5012 78.1037 58.1367C77.648 57.7722 77.4202 57.2482 77.4202 56.5647V56.2914C76.6912 57.0204 75.8255 57.5899 74.8231 58C73.8207 58.4556 72.6816 58.6835 71.4058 58.6835ZM71.8159 54.446C73.5473 54.446 74.9142 53.8765 75.9166 52.7374C76.919 51.5528 77.4202 50.0036 77.4202 48.0899C77.4202 46.2674 76.919 44.8094 75.9166 43.7158C74.9142 42.6223 73.5473 42.0755 71.8159 42.0755C70.0389 42.0755 68.6037 42.6223 67.5101 43.7158C66.4166 44.8094 65.8699 46.2674 65.8699 48.0899C65.8699 50.0036 66.4166 51.5528 67.5101 52.7374C68.6037 53.8765 70.0389 54.446 71.8159 54.446ZM95.2824 58.6835C94.5989 58.6835 93.961 58.524 93.3687 58.205C92.7764 57.9317 92.3435 57.4988 92.0701 56.9065L85.304 40.982C85.2128 40.6175 85.1673 40.3441 85.1673 40.1619C85.1673 39.4329 85.4179 38.8633 85.9191 38.4532C86.4203 38.0432 86.967 37.8381 87.5593 37.8381C87.9694 37.8381 88.3567 37.952 88.7212 38.1799C89.1313 38.4077 89.4275 38.7722 89.6097 39.2734L94.3939 51.6439C94.6217 52.0995 94.9179 52.3273 95.2824 52.3273C95.738 52.3273 96.0342 52.0995 96.1709 51.6439L100.887 39.2734C101.069 38.7722 101.342 38.4077 101.707 38.1799C102.117 37.952 102.527 37.8381 102.937 37.8381C103.575 37.8381 104.122 38.0432 104.577 38.4532C105.079 38.8633 105.329 39.4101 105.329 40.0935C105.329 40.3213 105.284 40.6175 105.192 40.982L98.4946 56.9065C98.2212 57.4988 97.7884 57.9317 97.196 58.205C96.6037 58.524 95.9658 58.6835 95.2824 58.6835ZM116.841 58.6835C116.157 58.6835 115.519 58.524 114.927 58.205C114.335 57.9317 113.902 57.4988 113.628 56.9065L106.862 40.982C106.771 40.6175 106.725 40.3441 106.725 40.1619C106.725 39.4329 106.976 38.8633 107.477 38.4532C107.978 38.0432 108.525 37.8381 109.117 37.8381C109.528 37.8381 109.915 37.952 110.279 38.1799C110.689 38.4077 110.986 38.7722 111.168 39.2734L115.952 51.6439C116.18 52.0995 116.476 52.3273 116.841 52.3273C117.296 52.3273 117.592 52.0995 117.729 51.6439L122.445 39.2734C122.627 38.7722 122.9 38.4077 123.265 38.1799C123.675 37.952 124.085 37.8381 124.495 37.8381C125.133 37.8381 125.68 38.0432 126.135 38.4532C126.637 38.8633 126.887 39.4101 126.887 40.0935C126.887 40.3213 126.842 40.6175 126.751 40.982L120.053 56.9065C119.779 57.4988 119.347 57.9317 118.754 58.205C118.162 58.524 117.524 58.6835 116.841 58.6835ZM139.166 58.6835C135.749 58.6835 133.084 57.7038 131.17 55.7446C129.256 53.7854 128.3 51.1427 128.3 47.8165C128.3 44.9005 129.256 42.5084 131.17 40.6403C133.129 38.7722 135.635 37.8381 138.688 37.8381C141.65 37.8381 144.019 38.7038 145.796 40.4353C147.573 42.1211 148.461 44.217 148.461 46.723C148.461 47.7254 148.188 48.4772 147.641 48.9784C147.14 49.4796 146.479 49.7302 145.659 49.7302H133.767C133.312 49.7302 133.152 49.9808 133.289 50.482C133.653 51.7578 134.382 52.7602 135.476 53.4892C136.615 54.1727 137.891 54.5144 139.303 54.5144C140.351 54.5144 141.354 54.3777 142.31 54.1043C143.313 53.8309 144.178 53.4209 144.907 52.8741C145.135 52.6918 145.431 52.6007 145.796 52.6007C146.297 52.6007 146.753 52.8285 147.163 53.2842C147.573 53.6942 147.778 54.1954 147.778 54.7878C147.778 55.0612 147.732 55.3345 147.641 55.6079C147.55 55.8813 147.345 56.1547 147.026 56.4281C145.842 57.2938 144.566 57.8861 143.199 58.205C141.877 58.524 140.533 58.6835 139.166 58.6835ZM143.13 46.1763C143.404 46.1763 143.541 46.0396 143.541 45.7662C143.541 44.7182 143.062 43.807 142.105 43.0324C141.194 42.2578 140.055 41.8705 138.688 41.8705C137.503 41.8705 136.364 42.1895 135.271 42.8273C134.223 43.4652 133.585 44.3082 133.357 45.3561C133.357 45.3561 133.357 45.3789 133.357 45.4245C133.312 45.6067 133.289 45.7662 133.289 45.9029C133.334 46.0396 133.539 46.1079 133.904 46.1079L143.13 46.1763ZM153.243 58.6835C152.651 58.6835 152.104 58.4556 151.603 58C151.101 57.4988 150.851 56.952 150.851 56.3597C150.851 55.813 151.056 55.3345 151.466 54.9245L157.344 48.7734C157.571 48.4544 157.685 48.2038 157.685 48.0216C157.685 47.7482 157.571 47.4976 157.344 47.2698L151.808 41.5288C151.489 41.1643 151.329 40.7314 151.329 40.2302C151.329 39.5923 151.603 39.0456 152.149 38.5899C152.696 38.0887 153.266 37.8381 153.858 37.8381C154.131 37.8381 154.405 37.9065 154.678 38.0432C154.997 38.1343 155.27 38.3393 155.498 38.6583L160.009 44.0576C160.328 44.3765 160.579 44.536 160.761 44.536C161.034 44.536 161.285 44.3765 161.513 44.0576L166.023 38.6583C166.251 38.3393 166.502 38.1343 166.775 38.0432C167.094 37.9065 167.39 37.8381 167.664 37.8381C168.302 37.8381 168.871 38.0887 169.372 38.5899C169.874 39.0911 170.124 39.6607 170.124 40.2986C170.124 40.7998 169.965 41.2326 169.646 41.5971L164.247 47.2698C164.064 47.452 163.973 47.7026 163.973 48.0216C163.973 48.295 164.064 48.5456 164.247 48.7734L170.056 54.9245C170.466 55.3345 170.671 55.813 170.671 56.3597C170.671 56.952 170.42 57.4988 169.919 58C169.418 58.4556 168.871 58.6835 168.279 58.6835C167.687 58.6835 167.163 58.4556 166.707 58L161.513 51.9173C161.33 51.5983 161.08 51.4389 160.761 51.4389C160.533 51.4389 160.282 51.5983 160.009 51.9173L154.815 58C154.359 58.4556 153.835 58.6835 153.243 58.6835Z" fill="#0669FD"/>
</svg>
