<svg width="110" height="110" viewBox="0 0 110 110" fill="none" xmlns="http://www.w3.org/2000/svg">
<path d="M110 55C110 85.3757 85.3757 110 55 110C24.6243 110 0 85.3757 0 55C0 24.6243 24.6243 0 55 0C85.3757 0 110 24.6243 110 55Z" fill="#0669FD"/>
<path d="M75.4866 54.894L49.3981 82.4039C49.229 82.5922 49.0209 82.7428 48.788 82.8456C48.555 82.9484 48.3024 83.001 48.047 83C47.7475 82.997 47.4526 82.9265 47.1852 82.7937C46.8304 82.6053 46.5462 82.31 46.3744 81.951C46.2025 81.5921 46.152 81.1884 46.2302 80.7992L49.631 63.9952L36.214 59.0434C35.9274 58.9339 35.6718 58.758 35.469 58.5305C35.2663 58.303 35.1223 58.0306 35.0494 57.7367C34.9785 57.4416 34.984 57.1338 35.0654 56.8414C35.1468 56.549 35.3015 56.2814 35.5152 56.0631L61.6038 28.5532C61.8822 28.2723 62.2449 28.0867 62.6385 28.0238C63.032 27.9608 63.4358 28.0237 63.7903 28.2033C64.1448 28.3829 64.4315 28.6697 64.6081 29.0215C64.7848 29.3733 64.8421 29.7716 64.7717 30.1579L61.3708 46.9848L74.7878 51.9366C75.0758 52.0396 75.3332 52.2117 75.5366 52.4373C75.7399 52.6629 75.8828 52.935 75.9522 53.2288C76.0216 53.5225 76.0154 53.8287 75.9341 54.1195C75.8527 54.4103 75.6989 54.6765 75.4866 54.894Z" fill="white"/>
</svg>
