<svg width="40" height="33" viewBox="0 0 40 33" fill="none" xmlns="http://www.w3.org/2000/svg">
<path d="M35.8883 8.58371C35.9137 8.93902 35.9137 9.29441 35.9137 9.64973C35.9137 20.4872 27.665 32.9746 12.5888 32.9746C7.94414 32.9746 3.62945 31.6293 0 29.2944C0.659922 29.3705 1.29437 29.3959 1.97969 29.3959C5.81211 29.3959 9.34008 28.1015 12.1573 25.8934C8.55328 25.8172 5.53297 23.4568 4.49234 20.2081C5 20.2842 5.50758 20.335 6.04062 20.335C6.77664 20.335 7.51273 20.2334 8.19797 20.0558C4.44164 19.2943 1.6243 15.9949 1.6243 12.0101V11.9086C2.71562 12.5178 3.98477 12.8985 5.32984 12.9492C3.12172 11.4771 1.67508 8.96441 1.67508 6.12176C1.67508 4.59895 2.08109 3.20301 2.7918 1.98473C6.82734 6.95934 12.8934 10.208 19.6953 10.5634C19.5684 9.95426 19.4923 9.31981 19.4923 8.68527C19.4923 4.16746 23.1471 0.487305 27.6902 0.487305C30.0506 0.487305 32.1826 1.47715 33.6801 3.07613C35.5328 2.72082 37.3095 2.03551 38.8831 1.09645C38.2739 3.00004 36.9795 4.59902 35.2791 5.61418C36.9288 5.4366 38.5278 4.97965 39.9998 4.3452C38.8833 5.96949 37.4873 7.41613 35.8883 8.58371Z" fill="#ffffff"/>
</svg>
