<svg width="38" height="28" viewBox="0 0 38 28" fill="none" xmlns="http://www.w3.org/2000/svg">
<path d="M37.1706 5.12551C36.7344 3.47908 35.4493 2.18241 33.8175 1.74236C30.8599 0.942749 19.0001 0.942749 19.0001 0.942749C19.0001 0.942749 7.14037 0.942749 4.18266 1.74236C2.55093 2.18248 1.26579 3.47908 0.829609 5.12551C0.0371094 8.10975 0.0371094 14.3361 0.0371094 14.3361C0.0371094 14.3361 0.0371094 20.5624 0.829609 23.5467C1.26579 25.1931 2.55093 26.4358 4.18266 26.8758C7.14037 27.6754 19.0001 27.6754 19.0001 27.6754C19.0001 27.6754 30.8598 27.6754 33.8175 26.8758C35.4493 26.4358 36.7344 25.1931 37.1706 23.5467C37.9631 20.5624 37.9631 14.3361 37.9631 14.3361C37.9631 14.3361 37.9631 8.10975 37.1706 5.12551ZM15.1213 19.9892V8.68304L25.0337 14.3362L15.1213 19.9892Z" fill="#535353"/>
</svg>
