<svg width="146" height="146" viewBox="0 0 146 146" fill="none" xmlns="http://www.w3.org/2000/svg">
<circle cx="73" cy="73" r="66.3636" fill="#00A991" stroke="#FEFEFE" stroke-width="13.2727" stroke-miterlimit="16" stroke-linecap="round" stroke-dasharray="25.72 25.72"/>
<path d="M52.8235 94.87C49.3102 94.7997 46.2535 94.1322 43.6537 92.8674C41.0538 91.6026 39.1565 89.8108 37.962 87.4919C37.5404 86.6487 37.3296 85.9109 37.3296 85.2785C37.3296 83.9434 37.8917 82.8894 39.016 82.1165C40.1403 81.3435 41.2997 80.9571 42.4942 80.9571C43.2672 80.9571 43.9699 81.0976 44.6023 81.3787C45.2347 81.6597 45.6914 82.1516 45.9725 82.8543C47.2373 85.5947 49.6264 86.9649 53.1397 86.9649C54.9667 86.9649 56.4775 86.4028 57.672 85.2785C58.9368 84.084 59.5692 82.6084 59.5692 80.8517C59.5692 76.7762 56.7234 74.8438 51.0317 75.0546C49.7669 75.1249 48.748 74.8087 47.9751 74.106C47.2022 73.3331 46.8157 72.3493 46.8157 71.1548C46.8157 69.9602 47.167 69.0116 47.8697 68.3089C48.6426 67.6063 49.5912 67.2549 50.7155 67.2549C53.2452 67.2549 55.0018 66.9036 55.9856 66.2009C57.0396 65.4982 57.5666 64.2686 57.5666 62.5119C57.5666 61.1065 57.1099 60.0877 56.1964 59.4553C55.2829 58.7526 54.2289 58.4012 53.0344 58.4012C51.9101 58.4012 50.8209 58.6472 49.7669 59.139C48.7129 59.6309 47.8697 60.3336 47.2373 61.2471C46.7454 61.9497 46.1833 62.4416 45.5509 62.7227C44.9185 62.9335 44.2509 63.0389 43.5483 63.0389C42.3537 63.0389 41.2646 62.6876 40.2808 61.9849C39.3673 61.2119 38.9106 60.2282 38.9106 59.0336C38.9106 58.5418 39.016 58.0499 39.2268 57.558C40.3511 55.3095 42.1429 53.5879 44.6023 52.3934C47.1319 51.1988 49.9075 50.6016 52.9289 50.6016C57.0747 50.6016 60.4124 51.6907 62.9421 53.869C65.4717 55.977 66.7365 58.7877 66.7365 62.3011C66.7365 65.6037 65.4365 68.3792 62.8367 70.6278C64.6636 71.5412 66.1392 72.9466 67.2635 74.8438C68.3878 76.6708 68.9499 78.6031 68.9499 80.6409C68.9499 84.9272 67.4392 88.4054 64.4177 91.0756C61.4664 93.6755 57.6017 94.9403 52.8235 94.87Z" fill="white"/>
<path d="M77.2601 94.87C75.925 94.87 74.7305 94.4133 73.6765 93.4998C72.6225 92.5161 72.0955 91.3918 72.0955 90.127C72.0955 89.1432 72.3765 88.2649 72.9387 87.4919L83.268 74.5276C83.7599 73.9655 84.0058 73.2628 84.0058 72.4196C84.0058 71.6466 83.7247 70.8737 83.1626 70.1008L73.3603 58.085C72.8684 57.3121 72.6225 56.4338 72.6225 55.45C72.6225 54.1852 73.1143 53.0609 74.0981 52.0772C75.0818 51.0934 76.2412 50.6016 77.5763 50.6016C78.9817 50.6016 80.0708 51.1637 80.8438 52.288L88.8542 63.4605C89.4164 64.0929 89.9083 64.4091 90.3299 64.4091C90.892 64.4091 91.3839 64.0929 91.8055 63.4605L99.7105 52.288C100.483 51.1637 101.573 50.6016 102.978 50.6016C104.313 50.6016 105.472 51.0934 106.456 52.0772C107.44 53.0609 107.932 54.1852 107.932 55.45C107.932 56.4338 107.686 57.3121 107.194 58.085L97.3917 70.1008C96.8296 70.8737 96.5485 71.6466 96.5485 72.4196C96.5485 73.2628 96.7945 73.9655 97.2863 74.5276L107.616 87.4919C108.178 88.2649 108.459 89.1432 108.459 90.127C108.459 91.3918 107.932 92.5161 106.878 93.4998C105.894 94.4133 104.7 94.87 103.294 94.87C101.889 94.87 100.8 94.3079 100.027 93.1836L91.8055 81.5895C91.3136 80.9571 90.8217 80.6409 90.3299 80.6409C89.7677 80.6409 89.2758 80.9571 88.8542 81.5895L80.5276 93.1836C79.7546 94.3079 78.6655 94.87 77.2601 94.87Z" fill="white"/>
</svg>
