<svg width="605" height="366" viewBox="0 0 605 366" fill="none" xmlns="http://www.w3.org/2000/svg">
<g filter="url(#filter0_i_386_105)">
<path d="M302.348 0C325.736 0 348.166 9.30774 364.704 25.8756C381.242 42.4435 390.533 64.9143 390.533 88.3448C390.533 111.775 381.242 134.246 364.704 150.814C348.166 167.382 325.736 176.69 302.348 176.69C278.96 176.69 256.53 167.382 239.992 150.814C223.454 134.246 214.163 111.775 214.163 88.3448C214.163 64.9143 223.454 42.4435 239.992 25.8756C256.53 9.30774 278.96 0 302.348 0ZM125.978 63.1034C140.088 63.1034 153.19 66.8897 164.528 73.7048C160.748 109.8 171.33 145.643 192.999 173.661C180.401 197.892 155.205 214.552 125.978 214.552C105.931 214.552 86.7055 206.574 72.5302 192.373C58.3549 178.172 50.3913 158.911 50.3913 138.828C50.3913 118.744 58.3549 99.4835 72.5302 85.2825C86.7055 71.0815 105.931 63.1034 125.978 63.1034ZM478.717 63.1034C498.764 63.1034 517.99 71.0815 532.165 85.2825C546.341 99.4835 554.304 118.744 554.304 138.828C554.304 158.911 546.341 178.172 532.165 192.373C517.99 206.574 498.764 214.552 478.717 214.552C449.49 214.552 424.295 197.892 411.697 173.661C433.664 145.249 443.861 109.452 440.168 73.7048C451.506 66.8897 464.608 63.1034 478.717 63.1034ZM138.576 321.828C138.576 269.578 211.895 227.172 302.348 227.172C392.8 227.172 466.12 269.578 466.12 321.828V366H138.576V321.828ZM0 366V328.138C0 293.052 47.6198 263.52 112.121 254.938C97.2552 272.102 88.1848 295.829 88.1848 321.828V366H0ZM604.696 366H516.511V321.828C516.511 295.829 507.44 272.102 492.575 254.938C557.076 263.52 604.696 293.052 604.696 328.138V366Z" fill="#D9D9D9"/>
</g>
<g filter="url(#filter1_i_386_105)">
<path d="M302.347 0C325.735 0 348.166 9.30774 364.703 25.8756C381.241 42.4435 390.532 64.9143 390.532 88.3448C390.532 111.775 381.241 134.246 364.703 150.814C348.166 167.382 325.735 176.69 302.347 176.69C278.959 176.69 256.529 167.382 239.991 150.814C223.454 134.246 214.163 111.775 214.163 88.3448C214.163 64.9143 223.454 42.4435 239.991 25.8756C256.529 9.30774 278.959 0 302.347 0ZM138.576 321.828C138.576 269.578 211.895 227.172 302.347 227.172C392.8 227.172 466.119 269.578 466.119 321.828V366H138.576V321.828Z" fill="#257CFD"/>
</g>
<defs>
<filter id="filter0_i_386_105" x="0" y="0" width="604.696" height="370" filterUnits="userSpaceOnUse" color-interpolation-filters="sRGB">
<feFlood flood-opacity="0" result="BackgroundImageFix"/>
<feBlend mode="normal" in="SourceGraphic" in2="BackgroundImageFix" result="shape"/>
<feColorMatrix in="SourceAlpha" type="matrix" values="0 0 0 0 0 0 0 0 0 0 0 0 0 0 0 0 0 0 127 0" result="hardAlpha"/>
<feOffset dy="4"/>
<feGaussianBlur stdDeviation="2"/>
<feComposite in2="hardAlpha" operator="arithmetic" k2="-1" k3="1"/>
<feColorMatrix type="matrix" values="0 0 0 0 0 0 0 0 0 0 0 0 0 0 0 0 0 0 0.25 0"/>
<feBlend mode="normal" in2="shape" result="effect1_innerShadow_386_105"/>
</filter>
<filter id="filter1_i_386_105" x="138.576" y="0" width="327.543" height="370" filterUnits="userSpaceOnUse" color-interpolation-filters="sRGB">
<feFlood flood-opacity="0" result="BackgroundImageFix"/>
<feBlend mode="normal" in="SourceGraphic" in2="BackgroundImageFix" result="shape"/>
<feColorMatrix in="SourceAlpha" type="matrix" values="0 0 0 0 0 0 0 0 0 0 0 0 0 0 0 0 0 0 127 0" result="hardAlpha"/>
<feOffset dy="4"/>
<feGaussianBlur stdDeviation="2"/>
<feComposite in2="hardAlpha" operator="arithmetic" k2="-1" k3="1"/>
<feColorMatrix type="matrix" values="0 0 0 0 0 0 0 0 0 0 0 0 0 0 0 0 0 0 0.25 0"/>
<feBlend mode="normal" in2="shape" result="effect1_innerShadow_386_105"/>
</filter>
</defs>
</svg>
