<svg width="26" height="46" viewBox="0 0 26 46" fill="none" xmlns="http://www.w3.org/2000/svg">
<path d="M20.7462 44.2944L0.655773 24.2636C0.417311 24.0251 0.248797 23.7668 0.150233 23.4886C0.0500785 23.2103 2.00305e-06 22.9123 1.97526e-06 22.5943C1.94746e-06 22.2764 0.0500784 21.9783 0.150233 21.7001C0.248797 21.4219 0.41731 21.1635 0.655773 20.9251L20.7462 0.834617C21.3026 0.278204 21.9982 -1.92314e-06 22.8328 -1.99611e-06C23.6674 -2.06907e-06 24.3828 0.298076 24.9789 0.894232C25.5751 1.49039 25.8732 2.1859 25.8732 2.98078C25.8732 3.77565 25.5751 4.47117 24.9789 5.06732L7.45195 22.5943L24.9789 40.1213C25.5354 40.6777 25.8136 41.3629 25.8136 42.1769C25.8136 42.9924 25.5155 43.6982 24.9193 44.2944C24.3232 44.8906 23.6277 45.1886 22.8328 45.1886C22.0379 45.1886 21.3424 44.8906 20.7462 44.2944Z" fill="#0669FD"/>
</svg>
