<svg width="59" height="44" viewBox="0 0 59 44" fill="none" xmlns="http://www.w3.org/2000/svg">
<path d="M13.4098 17.5471C12.7539 17.5471 12.1245 17.647 11.498 17.7381C11.7009 17.0562 11.9098 16.3626 12.2451 15.7395C12.5804 14.8342 13.1039 14.0494 13.6245 13.2588C14.0598 12.4035 14.8275 11.8244 15.3922 11.0926C15.9834 10.3813 16.7893 9.90808 17.4275 9.3173C18.054 8.70007 18.8746 8.39145 19.5276 7.95645C20.21 7.56553 20.8041 7.13347 21.4394 6.92772L23.0247 6.27522L24.4189 5.69619L22.9924 0L21.2365 0.423245C20.6747 0.564327 19.9894 0.728923 19.2099 0.92585C18.4129 1.07281 17.5628 1.47548 16.6158 1.84289C15.6804 2.26025 14.5981 2.54242 13.5922 3.21256C12.5804 3.85331 11.4127 4.38824 10.3833 5.24649C9.38618 6.1312 8.18321 6.89833 7.29496 8.02405C6.32435 9.07629 5.3655 10.1814 4.62137 11.4394C3.75958 12.6386 3.17427 13.9554 2.55661 15.2574C1.99777 16.5595 1.54776 17.891 1.18011 19.1842C0.483033 21.7766 0.171261 24.2397 0.0506696 26.3471C-0.0493328 28.4574 0.00949214 30.2122 0.133024 31.4819C0.177143 32.0815 0.259498 32.6635 0.318323 33.0661L0.391854 33.5599L0.468326 33.5423C0.991459 35.9843 2.19573 38.2284 3.94183 40.015C5.68793 41.8016 7.9045 43.0577 10.3351 43.638C12.7658 44.2183 15.3112 44.099 17.6768 43.2941C20.0425 42.4892 22.1318 41.0314 23.703 39.0894C25.2742 37.1474 26.2632 34.8006 26.5555 32.3204C26.8477 29.8403 26.4314 27.3281 25.3546 25.0745C24.2778 22.8209 22.5845 20.918 20.4707 19.5859C18.3569 18.2538 15.9088 17.5469 13.4098 17.5471ZM45.7635 17.5471C45.1076 17.5471 44.4782 17.647 43.8517 17.7381C44.0546 17.0562 44.2635 16.3626 44.5988 15.7395C44.9341 14.8342 45.4576 14.0494 45.9782 13.2588C46.4135 12.4035 47.1812 11.8244 47.7459 11.0926C48.3371 10.3813 49.143 9.90808 49.7812 9.3173C50.4077 8.70007 51.2283 8.39145 51.8813 7.95645C52.5637 7.56553 53.1578 7.13347 53.7931 6.92772L55.3784 6.27522L56.7726 5.69619L55.3461 0L53.5902 0.423245C53.0284 0.564327 52.3431 0.728923 51.5636 0.92585C50.7666 1.07281 49.9165 1.47548 48.9695 1.84289C48.0371 2.26319 46.9518 2.54242 45.9459 3.2155C44.9341 3.85625 43.7664 4.39118 42.737 5.24943C41.7399 6.13413 40.5369 6.90127 39.6487 8.02405C38.678 9.07629 37.7192 10.1814 36.9751 11.4394C36.1133 12.6386 35.528 13.9554 34.9103 15.2574C34.3515 16.5595 33.9015 17.891 33.5338 19.1842C32.8367 21.7766 32.525 24.2397 32.4044 26.3471C32.3044 28.4574 32.3632 30.2122 32.4867 31.4819C32.5308 32.0815 32.6132 32.6635 32.672 33.0661L32.7456 33.5599L32.822 33.5423C33.3452 35.9843 34.5494 38.2284 36.2955 40.015C38.0416 41.8016 40.2582 43.0577 42.6888 43.638C45.1195 44.2183 47.6649 44.099 50.0305 43.2941C52.3962 42.4892 54.4855 41.0314 56.0567 39.0894C57.6279 37.1474 58.6169 34.8006 58.9092 32.3204C59.2014 29.8403 58.7851 27.3281 57.7083 25.0745C56.6315 22.8209 54.9382 20.918 52.8244 19.5859C50.7106 18.2538 48.2625 17.5469 45.7635 17.5471Z" fill="black"/>
</svg>
