<svg width="26" height="46" viewBox="0 0 26 46" fill="none" xmlns="http://www.w3.org/2000/svg">
<path d="M5.12681 0.895052L25.2173 20.9259C25.4557 21.1644 25.6242 21.4227 25.7228 21.7009C25.823 21.9791 25.873 22.2772 25.873 22.5951C25.873 22.9131 25.823 23.2112 25.7228 23.4894C25.6242 23.7676 25.4557 24.0259 25.2173 24.2644L5.12681 44.3548C4.5704 44.9112 3.87488 45.1895 3.04026 45.1895C2.20564 45.1895 1.49026 44.8914 0.894102 44.2952C0.297945 43.6991 -0.000131798 43.0035 -0.000131868 42.2087C-0.000131937 41.4138 0.297945 40.7183 0.894102 40.1221L18.4211 22.5951L0.894099 5.06815C0.337685 4.51173 0.059479 3.82655 0.0594789 3.0126C0.0594788 2.19706 0.357557 1.49121 0.953712 0.895052C1.54987 0.298899 2.24538 0.000818411 3.04026 0.000818341C3.83513 0.000818272 4.53065 0.298899 5.12681 0.895052Z" fill="#0669FD"/>
</svg>
