<svg width="150" height="150" viewBox="0 0 150 150" fill="none" xmlns="http://www.w3.org/2000/svg">
<path d="M150 66.6667V50H133.333V33.3333C133.32 28.9171 131.56 24.6855 128.437 21.5628C125.314 18.44 121.083 16.6799 116.667 16.6667H100V0H83.3333V16.6667H66.6667V0H50V16.6667H33.3333C28.9171 16.6799 24.6855 18.44 21.5628 21.5628C18.44 24.6855 16.6799 28.9171 16.6667 33.3333V50H0V66.6667H16.6667V83.3333H0V100H16.6667V116.667C16.6799 121.083 18.44 125.314 21.5628 128.437C24.6855 131.56 28.9171 133.32 33.3333 133.333H50V150H66.6667V133.333H83.3333V150H100V133.333H116.667C121.083 133.32 125.314 131.56 128.437 128.437C131.56 125.314 133.32 121.083 133.333 116.667V100H150V83.3333H133.333V66.6667H150ZM116.667 116.667H33.3333V33.3333H116.667V116.667Z" fill="#0669FD"/>
<path d="M69.6751 41.667H58.4668L41.7168 108.334H50.2751L54.1418 92.7087H73.4418L77.2085 108.334H86.0585L69.6751 41.667ZM55.2668 86.0337L63.7501 49.5837H64.1335L72.3251 86.0337H55.2668ZM93.7001 41.667H102.033V108.334H93.7001V41.667Z" fill="#0669FD"/>
</svg>
