<svg width="150" height="150" viewBox="0 0 150 150" fill="none" xmlns="http://www.w3.org/2000/svg">
<path d="M112.5 150V135H135V112.5H150V138.75C150 141.675 148.8 144.3 146.55 146.55C144.3 148.8 141.675 150 138.75 150H112.5ZM37.5 150H11.25C8.325 150 5.7 148.8 3.45 146.55C1.2 144.3 0 141.675 0 138.75V112.5H15V135H37.5V150ZM112.5 0H138.75C141.675 0 144.3 1.2 146.55 3.45C148.8 5.7 150 8.325 150 11.25V37.5H135V15H112.5V0ZM37.5 0V15H15V37.5H0V11.25C0 8.325 1.2 5.7 3.45 3.45C5.7 1.2 8.325 0 11.25 0H37.5ZM82.5 114.375L112.5 97.125V62.7L82.5 79.95V114.375ZM75 66.9L105 49.725L75 32.1L45 49.725L75 66.9ZM37.5 97.125L67.5 114.375V79.95L37.5 62.7V97.125ZM121.725 41.925C125.475 44.325 127.5 47.55 127.5 51.825V99.225C127.5 103.5 125.475 106.725 121.725 109.125L80.625 132.975C76.875 135.375 73.125 135.375 69.375 132.975L28.275 109.125C24.525 106.725 22.5 103.5 22.5 99.225V51.825C22.5 47.55 24.525 44.325 28.275 41.925L69.375 18.075C71.25 17.1 73.125 16.65 75 16.65C76.875 16.65 78.75 17.1 80.625 18.075L121.725 41.925Z" fill="#0669FD"/>
</svg>
