<svg width="390" height="400" viewBox="0 0 390 400" fill="none" xmlns="http://www.w3.org/2000/svg">
<g filter="url(#filter0_i_414_411)">
<path d="M369.495 200.023H328.444C323 200.023 317.78 202.13 313.93 205.88C310.081 209.631 307.918 214.717 307.918 220.021C307.918 225.325 310.081 230.411 313.93 234.161C317.78 237.912 323 240.019 328.444 240.019V280.014H304.101C306.539 273.611 307.824 266.845 307.898 260.016C307.897 246.81 303.424 233.973 295.173 223.496C286.921 213.02 275.351 205.488 262.259 202.07C249.166 198.652 235.282 199.539 222.759 204.592C210.236 209.645 199.774 218.583 192.996 230.02C191.627 232.295 190.733 234.811 190.367 237.424C190 240.037 190.167 242.695 190.859 245.245C191.551 247.795 192.754 250.186 194.398 252.281C196.042 254.376 198.096 256.133 200.44 257.452C202.784 258.77 205.373 259.624 208.057 259.964C210.742 260.304 213.469 260.124 216.081 259.433C218.693 258.742 221.14 257.554 223.279 255.938C225.418 254.322 227.208 252.31 228.546 250.017C230.348 246.977 232.939 244.453 236.059 242.698C239.179 240.943 242.718 240.019 246.321 240.019C251.765 240.019 256.986 242.125 260.835 245.876C264.684 249.626 266.847 254.713 266.847 260.016C266.847 265.32 264.684 270.406 260.835 274.157C256.986 277.907 251.765 280.014 246.321 280.014C240.878 280.014 235.657 282.121 231.808 285.871C227.958 289.621 225.796 294.708 225.796 300.012C225.796 305.315 227.958 310.402 231.808 314.152C235.657 317.902 240.878 320.009 246.321 320.009C251.765 320.009 256.986 322.116 260.835 325.866C264.684 329.617 266.847 334.703 266.847 340.007C266.847 345.311 264.684 350.397 260.835 354.147C256.986 357.898 251.765 360.005 246.321 360.005C242.718 360.005 239.179 359.08 236.059 357.325C232.939 355.57 230.348 353.046 228.546 350.006C227.208 347.713 225.418 345.701 223.279 344.085C221.14 342.469 218.693 341.282 216.081 340.591C213.469 339.9 210.742 339.719 208.057 340.059C205.373 340.399 202.784 341.253 200.44 342.571C198.096 343.89 196.042 345.647 194.398 347.742C192.754 349.837 191.551 352.229 190.859 354.778C190.167 357.328 190 359.986 190.367 362.599C190.733 365.212 191.627 367.728 192.996 370.003C199.774 381.44 210.236 390.378 222.759 395.431C235.282 400.485 249.166 401.371 262.259 397.953C275.351 394.535 286.921 387.004 295.173 376.527C303.424 366.05 307.897 353.213 307.898 340.007C307.824 333.178 306.539 326.412 304.101 320.009H328.423V380.002C328.423 385.306 330.586 390.393 334.435 394.143C338.284 397.893 343.505 400 348.949 400C354.393 400 359.613 397.893 363.463 394.143C367.312 390.393 369.474 385.306 369.474 380.002V240.019C374.918 240.019 380.139 237.912 383.988 234.161C387.837 230.411 390 225.325 390 220.021C390 214.717 387.837 209.631 383.988 205.88C380.139 202.13 374.939 200.023 369.495 200.023ZM123.805 184.885C124.444 187.449 125.597 189.864 127.199 191.991C128.8 194.118 130.818 195.916 133.135 197.28C135.453 198.644 138.025 199.548 140.702 199.94C143.38 200.332 146.111 200.203 148.738 199.562C151.364 198.921 153.835 197.78 156.007 196.205C158.179 194.629 160.009 192.651 161.393 190.383C162.777 188.115 163.686 185.603 164.069 182.992C164.452 180.38 164.301 177.721 163.624 175.166L127.561 34.5825C125.038 24.7073 119.197 15.9382 110.967 9.67133C102.738 3.40444 92.593 0 82.148 0C71.7029 0 61.5581 3.40444 53.3286 9.67133C45.0991 15.9382 39.258 24.7073 36.7353 34.5825L0.651388 175.166C-0.0253617 177.721 -0.17665 180.38 0.20624 182.992C0.589131 185.603 1.49863 188.115 2.88235 190.383C4.26606 192.651 6.09664 194.629 8.26863 196.205C10.4406 197.78 12.9111 198.921 15.5377 199.562C18.1643 200.203 20.8952 200.332 23.5729 199.94C26.2507 199.548 28.8225 198.644 31.1401 197.28C33.4577 195.916 35.4753 194.118 37.0767 191.991C38.6781 189.864 39.8317 187.449 40.4709 184.885L51.9447 140.03H112.29L123.805 184.885ZM62.2279 100.035L76.5342 44.3013C76.9657 43.1937 77.7328 42.2401 78.7336 41.5672C79.7345 40.8943 80.9217 40.534 82.1377 40.534C83.3537 40.534 84.5409 40.8943 85.5418 41.5672C86.5426 42.2401 87.3097 43.1937 87.7412 44.3013L102.047 100.035H62.2279ZM225.816 100.035H246.342C251.784 100.04 257.002 102.149 260.85 105.898C264.698 109.647 266.862 114.73 266.867 120.033V140.03C266.867 145.334 269.03 150.42 272.879 154.171C276.728 157.921 281.949 160.028 287.393 160.028C292.837 160.028 298.057 157.921 301.907 154.171C305.756 150.42 307.918 145.334 307.918 140.03V120.033C307.902 104.126 301.409 88.876 289.865 77.6286C278.321 66.3812 262.668 60.0554 246.342 60.0395H225.816C220.373 60.0395 215.152 62.1464 211.303 65.8967C207.453 69.647 205.291 74.7335 205.291 80.0372C205.291 85.3409 207.453 90.4274 211.303 94.1777C215.152 97.928 220.373 100.035 225.816 100.035ZM143.714 280.014H123.189C117.747 280.009 112.529 277.9 108.681 274.151C104.833 270.402 102.669 265.318 102.663 260.016V240.019C102.663 234.715 100.501 229.628 96.6514 225.878C92.8022 222.128 87.5814 220.021 82.1377 220.021C76.694 220.021 71.4733 222.128 67.624 225.878C63.7747 229.628 61.6122 234.715 61.6122 240.019V260.016C61.6285 275.923 68.1212 291.173 79.6655 302.42C91.2099 313.668 106.863 319.993 123.189 320.009H143.714C149.158 320.009 154.379 317.902 158.228 314.152C162.077 310.402 164.24 305.315 164.24 300.012C164.24 294.708 162.077 289.621 158.228 285.871C154.379 282.121 149.158 280.014 143.714 280.014Z" fill="#0669FD"/>
</g>
<defs>
<filter id="filter0_i_414_411" x="0" y="0" width="390" height="404" filterUnits="userSpaceOnUse" color-interpolation-filters="sRGB">
<feFlood flood-opacity="0" result="BackgroundImageFix"/>
<feBlend mode="normal" in="SourceGraphic" in2="BackgroundImageFix" result="shape"/>
<feColorMatrix in="SourceAlpha" type="matrix" values="0 0 0 0 0 0 0 0 0 0 0 0 0 0 0 0 0 0 127 0" result="hardAlpha"/>
<feOffset dy="4"/>
<feGaussianBlur stdDeviation="2"/>
<feComposite in2="hardAlpha" operator="arithmetic" k2="-1" k3="1"/>
<feColorMatrix type="matrix" values="0 0 0 0 0 0 0 0 0 0 0 0 0 0 0 0 0 0 0.25 0"/>
<feBlend mode="normal" in2="shape" result="effect1_innerShadow_414_411"/>
</filter>
</defs>
</svg>
