<svg width="401" height="400" viewBox="0 0 401 400" fill="none" xmlns="http://www.w3.org/2000/svg">
<g filter="url(#filter0_i_414_408)">
<path d="M357.143 314.286C350.779 314.315 344.504 315.78 338.786 318.571L277.357 257.143H228.571V285.714H265.514L318.586 338.786C315.792 344.504 314.322 350.779 314.286 357.143C314.286 365.619 316.799 373.905 321.508 380.953C326.218 388.001 332.911 393.494 340.742 396.738C348.573 399.981 357.19 400.83 365.504 399.177C373.817 397.523 381.454 393.441 387.447 387.447C393.441 381.454 397.523 373.817 399.176 365.504C400.83 357.19 399.981 348.573 396.738 340.742C393.494 332.911 388.001 326.218 380.953 321.508C373.905 316.799 365.619 314.286 357.143 314.286ZM357.143 371.429C354.317 371.429 351.555 370.591 349.206 369.021C346.857 367.451 345.026 365.22 343.945 362.61C342.863 359.999 342.58 357.127 343.132 354.356C343.683 351.585 345.043 349.039 347.041 347.041C349.039 345.043 351.585 343.683 354.356 343.132C357.127 342.58 359.999 342.863 362.61 343.945C365.22 345.026 367.451 346.857 369.021 349.206C370.591 351.555 371.429 354.317 371.429 357.143C371.429 360.932 369.923 364.565 367.244 367.244C364.565 369.923 360.932 371.429 357.143 371.429ZM357.143 157.143C348.308 157.169 339.698 159.93 332.495 165.045C325.292 170.161 319.849 177.381 316.914 185.714H228.571V214.286H316.914C319.546 221.674 324.158 228.197 330.246 233.141C336.334 238.085 343.664 241.261 351.435 242.321C359.206 243.382 367.119 242.286 374.309 239.153C381.499 236.02 387.69 230.971 392.205 224.558C396.72 218.145 399.385 210.615 399.909 202.789C400.434 194.964 398.797 187.145 395.178 180.187C391.559 173.228 386.097 167.399 379.39 163.335C372.682 159.271 364.986 157.129 357.143 157.143ZM357.143 214.286C354.317 214.286 351.555 213.448 349.206 211.878C346.857 210.308 345.026 208.077 343.945 205.467C342.863 202.857 342.58 199.984 343.132 197.213C343.683 194.442 345.043 191.896 347.041 189.898C349.039 187.901 351.585 186.54 354.356 185.989C357.127 185.438 359.999 185.72 362.61 186.802C365.22 187.883 367.451 189.714 369.021 192.063C370.591 194.413 371.429 197.175 371.429 200C371.429 203.789 369.923 207.422 367.244 210.102C364.565 212.781 360.932 214.286 357.143 214.286ZM357.143 1.79684e-05C345.78 0.0113639 334.886 4.5303 326.851 12.5651C318.816 20.5999 314.297 31.4942 314.286 42.8572C314.334 49.7008 316.04 56.4308 319.257 62.4715L265.657 114.286H228.571V142.857H277.2L340.057 82.1143C345.896 84.6605 352.229 85.8726 358.596 85.6624C364.962 85.4521 371.202 83.8249 376.86 80.8991C382.519 77.9732 387.453 73.8225 391.305 68.7489C395.157 63.6754 397.829 57.8068 399.127 51.5703C400.424 45.3339 400.315 38.8866 398.806 32.6977C397.298 26.5089 394.429 20.7343 390.407 15.7943C386.385 10.8544 381.313 6.87335 375.558 4.14111C369.804 1.40888 363.513 -0.00581565 357.143 1.79684e-05ZM357.143 57.1429C354.317 57.1429 351.555 56.305 349.206 54.7353C346.857 53.1656 345.026 50.9344 343.945 48.3241C342.863 45.7137 342.58 42.8413 343.132 40.0702C343.683 37.299 345.043 34.7535 347.041 32.7556C349.039 30.7577 351.585 29.3972 354.356 28.8459C357.127 28.2947 359.999 28.5776 362.61 29.6589C365.22 30.7401 367.451 32.5712 369.021 34.9204C370.591 37.2697 371.429 40.0317 371.429 42.8572C371.429 46.646 369.923 50.2796 367.244 52.9587C364.565 55.6378 360.932 57.1429 357.143 57.1429Z" fill="#0669FD"/>
<path d="M228.571 57.1429H257.143V28.5714H228.571C220.43 28.5986 212.39 30.3756 204.996 33.7819C197.601 37.1883 191.026 42.1443 185.714 48.3143C180.403 42.1443 173.827 37.1883 166.433 33.7819C159.039 30.3756 150.998 28.5986 142.857 28.5714H128.571C94.4838 28.6093 61.8031 42.1673 37.6995 66.2709C13.5958 90.3745 0.0378122 123.055 0 157.143V242.857C0.0378122 276.945 13.5958 309.625 37.6995 333.729C61.8031 357.833 94.4838 371.391 128.571 371.429H142.857C150.998 371.401 159.039 369.624 166.433 366.218C173.827 362.812 180.403 357.856 185.714 351.686C191.026 357.856 197.601 362.812 204.996 366.218C212.39 369.624 220.43 371.401 228.571 371.429H257.143V342.857H228.571C220.996 342.85 213.733 339.837 208.377 334.48C203.02 329.124 200.008 321.861 200 314.286V85.7143C200.008 78.139 203.02 70.8762 208.377 65.5196C213.733 60.1631 220.996 57.1504 228.571 57.1429ZM142.857 342.857H128.571C104.549 342.814 81.3439 334.131 63.194 318.394C45.0441 302.657 33.1607 280.917 29.7143 257.143H57.1429V228.571H28.5714V171.429H71.4286C82.7915 171.417 93.6858 166.898 101.721 158.863C109.755 150.829 114.274 139.934 114.286 128.571V100H85.7143V128.571C85.7143 132.36 84.2092 135.994 81.5301 138.673C78.851 141.352 75.2174 142.857 71.4286 142.857H29.7143C33.1607 119.083 45.0441 97.3426 63.194 81.6057C81.3439 65.8687 104.549 57.1859 128.571 57.1429H142.857C150.432 57.1504 157.695 60.1631 163.052 65.5196C168.408 70.8762 171.421 78.139 171.429 85.7143V142.857H142.857V171.429H171.429V228.571H142.857C131.494 228.583 120.6 233.102 112.565 241.137C104.53 249.171 100.011 260.066 100 271.429V300H128.571V271.429C128.571 267.64 130.077 264.006 132.756 261.327C135.435 258.648 139.068 257.143 142.857 257.143H171.429V314.286C171.421 321.861 168.408 329.124 163.052 334.48C157.695 339.837 150.432 342.85 142.857 342.857Z" fill="#0669FD"/>
</g>
<defs>
<filter id="filter0_i_414_408" x="0" y="0" width="400.025" height="404" filterUnits="userSpaceOnUse" color-interpolation-filters="sRGB">
<feFlood flood-opacity="0" result="BackgroundImageFix"/>
<feBlend mode="normal" in="SourceGraphic" in2="BackgroundImageFix" result="shape"/>
<feColorMatrix in="SourceAlpha" type="matrix" values="0 0 0 0 0 0 0 0 0 0 0 0 0 0 0 0 0 0 127 0" result="hardAlpha"/>
<feOffset dy="4"/>
<feGaussianBlur stdDeviation="2"/>
<feComposite in2="hardAlpha" operator="arithmetic" k2="-1" k3="1"/>
<feColorMatrix type="matrix" values="0 0 0 0 0 0 0 0 0 0 0 0 0 0 0 0 0 0 0.25 0"/>
<feBlend mode="normal" in2="shape" result="effect1_innerShadow_414_408"/>
</filter>
</defs>
</svg>
