<svg width="158" height="138" viewBox="0 0 158 138" fill="none" xmlns="http://www.w3.org/2000/svg">
<path d="M78.5634 102.963C72.3125 102.963 66.3176 100.48 61.8976 96.0602C57.4776 91.6402 54.9944 85.6453 54.9944 79.3944C54.9944 70.5953 59.7868 62.8961 66.7789 58.8894L143.064 14.7368L99.6184 90.0005C95.6902 97.6997 87.7553 102.963 78.5634 102.963ZM78.5634 0.831055C92.7834 0.831055 106.061 4.75922 117.609 11.2014L101.111 20.7076C94.2761 18.0364 86.4197 16.5437 78.5634 16.5437C61.8944 16.5437 45.9081 23.1655 34.1213 34.9523C22.3345 46.7391 15.7127 62.7254 15.7127 79.3944C15.7127 96.7569 22.7049 112.47 34.0965 123.783H34.1751C37.2391 126.847 37.2391 131.796 34.1751 134.86C31.1111 137.924 26.0831 137.924 23.0191 134.939C15.7125 127.653 9.91756 118.996 5.96721 109.463C2.01685 99.9314 -0.0110439 89.7127 4.52344e-05 79.3944C4.52344e-05 58.5581 8.27723 38.5752 23.0107 23.8417C37.7442 9.10824 57.7271 0.831055 78.5634 0.831055ZM157.127 79.3944C157.127 101.078 148.328 120.719 134.108 134.939C131.044 137.924 126.094 137.924 123.03 134.86C122.302 134.133 121.724 133.27 121.33 132.32C120.936 131.369 120.733 130.35 120.733 129.321C120.733 128.293 120.936 127.274 121.33 126.323C121.724 125.373 122.302 124.51 123.03 123.783C128.873 117.964 133.506 111.045 136.661 103.427C139.816 95.8084 141.432 87.6405 141.414 79.3944C141.414 71.5381 139.921 63.6818 137.172 56.611L146.678 40.1127C153.199 51.8972 157.127 65.0959 157.127 79.3944Z" fill="#0669FD"/>
</svg>
